<?xml version="1.0" encoding="UTF-8"?>
<svg id="Layer_1" data-name="Layer 1" xmlns="http://www.w3.org/2000/svg" viewBox="0 0 142.84 72.21">
  <defs>
    <style>
      .cls-1 {
        fill: #e2e2e2;
        stroke-width: 0px;
      }
    </style>
  </defs>
  <path class="cls-1" d="m21.22,60.06c.16.08.26.13.36.17.51.22,1,.48,1.45.82.77.59,1.27,1.35,1.47,2.3.18.86.17,1.72-.04,2.57-.29,1.14-.99,1.98-1.99,2.57-.8.48-1.68.75-2.6.87-.66.09-1.33.14-2,.14-2.72.02-5.43,0-8.15,0-.14,0-.29,0-.42,0-.08-.3-.1-17.63-.03-18.07.09,0,.19-.03.28-.03,2.8,0,5.59-.01,8.39,0,1.13,0,2.24.22,3.26.74,1.32.68,2.17,1.73,2.36,3.21.24,1.84-.32,3.37-1.93,4.41-.12.08-.24.16-.41.27Zm-8.14,6.03c.15.01.25.03.35.03,1.49,0,2.98,0,4.47,0,.53,0,1.07-.06,1.57-.25,1.08-.41,1.43-1.3,1.19-2.36-.13-.58-.54-.93-1.06-1.16-.53-.23-1.09-.31-1.66-.31-1.5-.01-3,0-4.5,0-.03,0-.07,0-.1,0-.23.02-.25.04-.28.26,0,.06,0,.11,0,.17,0,1.08,0,2.16,0,3.24,0,.12.02.24.03.4Zm.04-7.33c.06,0,.11.02.15.02,1.33,0,2.66,0,3.99-.01.49,0,.97-.11,1.42-.31.68-.31,1.03-.84,1.05-1.58.03-.72-.24-1.31-.9-1.67-.44-.24-.91-.35-1.4-.36-1.33-.02-2.66-.02-3.99-.03-.12,0-.24.02-.35.04-.08.44-.06,3.61.02,3.9Z"/>
  <path class="cls-1" d="m38.5,51.42h.39c.95,0,1.91.01,2.86,0,.26,0,.41.09.56.29,1.62,2.14,3.24,4.27,4.86,6.41,1.07,1.41,2.15,2.82,3.22,4.23.06.08.13.15.23.26.03-.12.06-.19.07-.26,0-.1,0-.2,0-.31,0-3.36,0-6.73,0-10.09v-.46c.3-.09,3.49-.09,3.8-.02.07.26.08,17.7,0,18.05-.1,0-.21.03-.32.03-.89,0-1.77,0-2.66,0-.22,0-.37-.07-.51-.25-2.78-3.67-5.57-7.33-8.36-10.99-.07-.09-.14-.17-.28-.24,0,.1-.03.21-.03.31,0,.8,0,1.59,0,2.39,0,2.76,0,5.52,0,8.29,0,.14-.02.29-.03.45h-3.81c0-.18-.03-.34-.03-.51,0-5.08,0-10.16,0-15.24,0-.64,0-1.27,0-1.91,0-.12.01-.24.02-.42Z"/>
  <path class="cls-1" d="m83.61,69.5h-3.79c-.08-.28-.09-17.7,0-18.06.11,0,.23-.02.35-.02.92,0,1.84.01,2.76,0,.32,0,.52.09.71.35,1.74,2.31,3.49,4.6,5.23,6.9.9,1.19,1.8,2.37,2.7,3.56.09.12.19.24.33.34.1-.74.06-1.48.07-2.21,0-.74,0-1.48,0-2.22v-6.63c.26-.09,3.23-.13,3.79-.05,0,0,.02.01.02.02,0,0,.02.02.02.03,0,.03.02.07.02.1,0,5.9,0,11.8,0,17.7,0,.06-.01.11-.02.21-.11.01-.21.04-.32.04-.91,0-1.82,0-2.73,0-.19,0-.32-.05-.43-.21-1.48-1.95-2.96-3.89-4.44-5.83-1.33-1.74-2.66-3.49-3.99-5.23-.06-.08-.13-.14-.25-.28-.05.46-.02.84-.03,1.22,0,.38,0,.75,0,1.13v2.28c0,.39,0,.77,0,1.16,0,.38,0,.75,0,1.13s0,.77,0,1.16v3.44Z"/>
  <path class="cls-1" d="m71.41,43.08c-4.15-4.15-8.29-8.29-12.41-12.41,1.49-1.49,3-2.99,4.5-4.49,2.61,2.58,5.24,5.19,7.92,7.83.9-.85,1.75-1.75,2.62-2.62.88-.87,1.74-1.76,2.62-2.64.88-.87,1.76-1.74,2.64-2.61.22.12,4.3,4.17,4.53,4.5-.13.25-12.13,12.26-12.41,12.44Z"/>
  <path class="cls-1" d="m63.51,19.32c-1.51-1.51-3.01-3.01-4.52-4.52.11-.19,12-12.12,12.39-12.4.22.13,12.16,12,12.44,12.36-1.5,1.51-3.01,3.02-4.54,4.57-1.3-1.3-2.62-2.62-3.93-3.93-1.31-1.31-2.62-2.61-3.95-3.95-1.34,1.35-2.65,2.67-3.97,3.99-1.31,1.31-2.63,2.61-3.92,3.88Z"/>
  <path class="cls-1" d="m123.76,66.07h9.78c.08.28.1,3.03.03,3.39-.25.06-13.25.09-13.69.02,0,0-.02-.02-.02-.03,0,0-.02-.02-.02-.03,0-.08-.02-.16-.02-.24,0-5.88,0-11.75,0-17.63,0-.03.02-.06.03-.09.25-.07,13.17-.09,13.55,0,.01.09.03.19.03.28,0,.92,0,1.84,0,2.76,0,.35-.02.38-.4.38-2.17,0-4.34,0-6.51,0-.78,0-1.57,0-2.35,0-.14,0-.29.02-.46.03-.01.14-.03.27-.03.39,0,.99,0,1.98,0,2.97,0,.4.02.42.43.42,2.55,0,5.09,0,7.64,0,.16,0,.31.01.46.02.08.3.09,3.05,0,3.43-.93,0-1.87,0-2.81,0-.94,0-1.89,0-2.83,0-.94,0-1.88,0-2.81,0-.12.32-.13,3.6,0,3.93Z"/>
  <path class="cls-1" d="m76.68,69.51c-.17.01-.27.03-.37.03-1.13,0-2.25,0-3.38,0-.34,0-.35,0-.47-.32-.46-1.14-.92-2.27-1.38-3.41-.14-.35-.14-.35-.52-.35-2.33,0-4.66,0-6.99,0-.28,0-.42.1-.52.36-.45,1.15-.93,2.3-1.39,3.45-.07.17-.15.28-.37.28-1.18,0-2.36,0-3.55,0-.04,0-.09-.01-.19-.03.05-.14.09-.26.14-.38.6-1.41,1.2-2.82,1.81-4.23,1.87-4.38,3.73-8.76,5.6-13.13.03-.07.07-.14.09-.22.05-.17.17-.22.34-.22.19,0,.39,0,.58,0,.81,0,1.61.01,2.42,0,.29,0,.44.08.56.36.89,2.12,1.79,4.22,2.69,6.33,1.5,3.51,2.99,7.02,4.49,10.53.13.3.25.6.4.96Zm-7.21-7.53c-.05-.33-2.21-5.64-2.38-5.86-.18.2-2.39,5.54-2.42,5.85.26.09,4.43.1,4.8.01Z"/>
  <path class="cls-1" d="m116.31,53.86c-.82.95-1.64,1.89-2.47,2.85-.14-.11-.25-.2-.37-.29-.83-.67-1.71-1.23-2.76-1.51-3.04-.81-5.91.85-6.67,3.9-.5,1.99-.21,3.87,1.08,5.51,1.16,1.48,2.74,2.07,4.6,1.93,1.47-.11,2.69-.76,3.78-1.71.14-.12.29-.25.4-.34.84.84,1.66,1.66,2.49,2.49-.04.04-.09.11-.15.18-1.48,1.55-3.26,2.57-5.41,2.84-1.93.24-3.82.12-5.61-.69-2.65-1.19-4.39-3.21-5.12-6.01-.78-3.01-.31-5.85,1.59-8.36,1.36-1.79,3.18-2.88,5.37-3.36,1.13-.24,2.27-.26,3.42-.16,1.31.12,2.54.46,3.69,1.09.72.4,1.36.9,1.96,1.46.05.04.08.1.14.18Z"/>
  <path class="cls-1" d="m32.98,69.5h-3.82s-.03-.02-.03-.03c0,0-.02-.02-.02-.03,0-.04-.02-.09-.02-.13,0-5.9,0-11.79,0-17.69,0-.04.01-.09.02-.13.24-.08,3.37-.1,3.83-.03,0,0,.02.01.03.02,0,0,.02.02.02.03,0,.06.02.11.02.17,0,5.88,0,11.77,0,17.65,0,.04-.01.09-.03.18Z"/>
  <path class="cls-1" d="m82.75,22.69c1.48-1.49,2.96-2.99,4.48-4.52,1.54,1.53,3.06,3.04,4.56,4.52-1.53,1.53-3.04,3.04-4.53,4.52-1.47-1.47-2.98-2.98-4.51-4.52Z"/>
  <path class="cls-1" d="m51.06,22.77c1.51-1.51,3.01-3.02,4.54-4.56,1.48,1.49,2.97,2.99,4.43,4.47-1.51,1.51-3,3-4.5,4.51-.17-.09-4.28-4.14-4.47-4.42Z"/>
  <path class="cls-1" d="m71.35,27.23c-1.47-1.5-2.95-3.01-4.4-4.49,1.47-1.47,2.97-2.97,4.5-4.5,1.48,1.44,2.98,2.95,4.48,4.42-1.53,1.53-3.04,3.04-4.58,4.58Z"/>
</svg>