<?xml version="1.0" encoding="UTF-8"?>
<svg id="Layer_1" data-name="Layer 1" xmlns="http://www.w3.org/2000/svg" viewBox="0 0 78.18 29.47">
  <defs>
    <style>
      .cls-1 {
        fill: #e2e2e2;
        stroke-width: 0px;
      }
    </style>
  </defs>
  <path class="cls-1" d="m55.81,3.39c1.21,0,2.41-.02,3.62,0,1.89.04,3.79.06,5.67.26,2.12.23,4.02,1.03,5.68,2.38,2.12,1.72,3.4,3.95,3.84,6.63.53,3.23-.05,6.24-2.07,8.88-1.78,2.33-4.19,3.63-7.07,4.08-1.81.28-3.63.35-5.45.4-3.41.09-6.83-.07-10.24,0-.63.01-.82-.22-.78-.85,0-.12,0-.25.02-.37.04-.35.22-.52.58-.54.44-.02.88-.06,1.3-.17.64-.17.99-.57,1.1-1.22.21-1.31.15-2.63.15-3.95,0-3.65,0-7.3,0-10.95,0-.57-.01-1.15-.16-1.71-.15-.55-.52-.84-1.04-1-.47-.14-.95-.15-1.43-.25-.36-.08-.49-.23-.5-.6,0-.15,0-.29,0-.44,0-.53.14-.7.67-.7,2.04,0,4.08,0,6.12,0v.12Zm2.53,11.11h0c0,2.22,0,4.44,0,6.66,0,.67.06,1.33.22,1.97.13.5.45.85.96.93,1.11.18,2.23.31,3.36.15,1.71-.24,3.04-1.07,3.81-2.63.97-1.96,1.3-4.08,1.4-6.25.06-1.4-.06-2.79-.35-4.16-.25-1.18-.53-2.36-1.13-3.41-1.58-2.78-4.59-3.3-7.19-2.47-.44.14-.72.47-.87.92-.19.55-.21,1.13-.21,1.7,0,2.2,0,4.39,0,6.59Z"/>
  <path class="cls-1" d="m14.5,25.97c-3.57,0-7.15,0-10.72.01-.32,0-.39-.13-.4-.37-.01-.28-.02-.56,0-.84,0-.24.13-.4.38-.44.32-.04.65-.09.97-.12,1.12-.1,1.56-.55,1.69-1.67.11-.95.11-1.91.11-2.87,0-3.93,0-7.87,0-11.8,0-.45-.03-.9-.1-1.35-.1-.67-.48-1.07-1.11-1.25-.52-.14-1.05-.24-1.59-.27-.26-.02-.35-.09-.33-.36.03-.34.02-.68,0-1.01,0-.2.03-.3.25-.27.09.01.18,0,.27,0,7.03,0,14.06,0,21.1,0,.28,0,.38.04.37.36-.02,2.29-.01,4.58,0,6.86,0,.26-.07.33-.32.31-.33-.02-.66-.03-.98,0-.32.03-.45-.09-.52-.4-.18-.79-.45-1.54-.83-2.26-.92-1.72-2.38-2.66-4.26-3.03-1.27-.25-2.55-.25-3.83-.09-.21.03-.42,0-.64.06-.71.19-1.1.64-1.18,1.36-.12.99-.14,1.98-.14,2.97,0,1.1,0,2.21,0,3.31,0,.19.04.26.25.3.8.15,1.61.22,2.41.02,1.28-.31,1.99-1.22,2.48-2.36.2-.47.35-.97.46-1.47.03-.16.09-.2.24-.19.41.01.81.02,1.22,0,.21,0,.27.05.26.26-.01.73,0,1.46,0,2.2,0,2.43,0,4.87,0,7.3,0,.27-.08.34-.33.32-.37-.02-.74-.01-1.12,0-.16,0-.22-.04-.27-.21-.18-.69-.39-1.38-.68-2.04-.6-1.4-1.64-2.12-3.16-2.13-.47,0-.94.04-1.42.07-.22.01-.34.11-.34.36.03,2.5-.07,5,.07,7.5.03.54.19,1.04.68,1.36.29.19.63.25.96.26,1.65.07,3.29.05,4.88-.46,1.82-.59,3.02-1.87,3.82-3.57.28-.6.5-1.22.74-1.84.26-.63.53-.78,1.2-.7.77.1.78.1.76.87-.07,2.32-.17,4.64-.23,6.96,0,.3-.12.33-.37.33-3.57,0-7.14,0-10.72,0Z"/>
  <path class="cls-1" d="m38.32,26.66c-4.06-.06-7.36-1.68-9.83-4.91-1.12-1.47-1.66-3.18-1.92-5-.25-1.8-.2-3.59.28-5.35.44-1.61,1.2-3.06,2.29-4.33,1.95-2.26,4.43-3.58,7.35-4.08,2.29-.39,4.52-.14,6.68.75.63.26,1.26.51,1.93.66.83.19,1.18.01,1.5-.77q.24-.59.89-.59c.27,0,.54.01.81,0,.2-.01.26.04.27.25.11,2.96.24,5.92.37,8.88,0,.2-.04.25-.23.24-.23-.02-.47-.02-.71,0-.55.05-.77-.06-1-.58-.37-.85-.71-1.72-1.1-2.56-.43-.93-.86-1.88-1.57-2.65-1.09-1.17-2.47-1.71-4.04-1.81-1.54-.1-2.96.29-4.2,1.24-1.14.88-1.79,2.08-2.19,3.43-.61,2.03-.76,4.1-.65,6.21.08,1.44.2,2.87.57,4.27.41,1.54,1.19,2.86,2.52,3.77,2.02,1.37,4.15,1.35,6.27.27,2.02-1.03,3.33-2.68,4.04-4.82.28-.83.56-1,1.43-.89.26.03.52.02.78,0,.21-.02.26.04.23.24-.25,1.68-.88,3.19-1.95,4.51-1.53,1.89-3.54,2.96-5.92,3.35-.96.16-1.91.29-2.89.28Z"/>
</svg>