<?xml version="1.0" encoding="UTF-8"?>
<svg id="Layer_1" data-name="Layer 1" xmlns="http://www.w3.org/2000/svg" viewBox="0 0 172.41 29.47">
  <defs>
    <style>
      .cls-1 {
        fill: #e2e2e2;
        stroke-width: 0px;
      }
    </style>
  </defs>
  <path class="cls-1" d="m164.89,16.04c-.08.46-.15.91-.24,1.37-.42,2.04-1.34,3.8-2.98,5.13-1.29,1.05-2.79,1.6-4.44,1.74-2.27.19-4.38-.27-6.19-1.72-1.6-1.28-2.53-2.98-2.95-4.95-.54-2.55-.41-5.06.74-7.44,1.35-2.79,3.59-4.35,6.72-4.56,1.52-.1,3.01.04,4.41.67,2.11.95,3.41,2.64,4.24,4.73.35.88.54,1.79.63,2.73,0,.06-.02.13.06.15v2.14Zm-4.31-1.1c0-.52.01-1.04,0-1.56-.03-1.22-.1-2.45-.42-3.64-.25-.92-.65-1.76-1.44-2.36-.95-.73-2.04-.84-3.18-.67-1.3.19-2.19.93-2.71,2.13-.32.75-.5,1.55-.61,2.36-.25,1.85-.21,3.71-.16,5.56.03,1.29.17,2.56.58,3.79.53,1.57,1.55,2.53,3.25,2.68,1.71.15,3.21-.49,3.96-2.24.24-.55.37-1.12.48-1.7.25-1.44.25-2.9.24-4.36Z"/>
  <path class="cls-1" d="m52.47,4.34c0,1.35,0,2.69,0,4.04,0,.17-.03.25-.23.25-2.54,0-5.07,0-7.61,0-.02,0-.04,0-.09-.02.19-.35.46-.63.71-.9,1.61-1.73,3.59-2.8,5.92-3.23.23-.04.47-.01.68-.14h.61Z"/>
  <path class="cls-1" d="m54,4.34c.52.1,1.04.18,1.55.31,2.34.6,4.24,1.87,5.72,3.77.04.05.07.1.1.15-.08.09-.18.05-.27.05-2.4,0-4.81,0-7.21,0-.25,0-.33-.05-.33-.32.01-1.33,0-2.65,0-3.98.14,0,.29,0,.43,0Z"/>
  <path class="cls-1" d="m76.47,18.72c.72-2.08,1.42-4.1,2.11-6.13.74-2.16,1.49-4.31,2.22-6.47.07-.22.17-.29.41-.29,2.34.01,4.67.01,7.01,0,.25,0,.33.06.32.32-.02.6,0,.59-.62.6-.44,0-.88-.04-1.31.1-.64.19-.83.41-.83,1.07,0,4.69,0,9.37,0,14.06,0,.75.46,1.22,1.22,1.24.43.01.86.01,1.29,0,.16,0,.2.05.21.21.01.66.02.66-.64.66-2.81,0-5.61,0-8.42,0-.26,0-.33-.06-.32-.31.02-.55,0-.55.56-.55.5,0,1,.05,1.49-.14.44-.17.61-.4.61-.85,0-4.92,0-9.84,0-14.77,0-.04,0-.08,0-.14-.09.06-.1.16-.12.23-1.85,5.4-3.7,10.81-5.54,16.22-.08.22-.16.33-.42.31-.44-.03-.88-.02-1.32,0-.2,0-.28-.06-.34-.25-1.12-3.34-2.25-6.68-3.38-10.01-.71-2.09-1.42-4.19-2.13-6.28-.02-.06,0-.15-.12-.19,0,.11,0,.22,0,.32,0,4.66,0,9.31,0,13.97,0,.09,0,.18,0,.28.02.94.36,1.28,1.32,1.29.38,0,.76,0,1.14,0,.15,0,.19.04.19.19.03.67.03.67-.62.67-1.89,0-3.79,0-5.68,0-.24,0-.34-.04-.33-.31.02-.56,0-.56.56-.56.31,0,.61,0,.92,0,.74-.03,1.26-.56,1.24-1.28-.07-2.44-.02-4.88-.03-7.32,0-2.14,0-4.29,0-6.43,0-1.01-.42-1.43-1.43-1.44-.35,0-.7,0-1.04,0-.06,0-.17.03-.17-.07-.01-.25-.02-.51,0-.76.02-.14.17-.07.26-.07,1.01,0,2.03,0,3.04,0,1.34,0,2.68,0,4.03,0,.27,0,.39.07.47.33,1.36,4.1,2.74,8.19,4.11,12.28.03.08.06.15.1.28Z"/>
  <path class="cls-1" d="m130.16,15.03c0-2.3,0-4.6,0-6.89,0-.98-.43-1.41-1.43-1.41-.36,0-.72,0-1.08,0-.14,0-.19-.03-.2-.18-.04-.71-.04-.71.68-.71,3.05,0,6.11,0,9.16,0,1.78,0,3.47.41,4.97,1.41,2.03,1.37,3.24,3.29,3.67,5.68.43,2.46.1,4.83-1.2,7-1.45,2.43-3.63,3.77-6.45,4.09-.39.04-.78.05-1.17.05-3.11,0-6.23,0-9.34,0-.28,0-.36-.08-.32-.34.01-.08.01-.16,0-.24-.03-.2.06-.23.24-.24.53-.02,1.06.07,1.58-.11.69-.23.87-.45.88-1.17,0-.1,0-.2,0-.31,0-2.22,0-4.43,0-6.65Zm3.94-.12c0,2.34,0,4.68,0,7.02,0,.2,0,.41.03.61.08.53.3.73.84.74.86.01,1.72.03,2.58,0,1.12-.05,2.05-.52,2.75-1.41.53-.68.84-1.47,1.05-2.29.46-1.8.5-3.63.45-5.47-.04-1.49-.12-2.98-.56-4.42-.62-2.05-1.93-3.02-4.07-3.02-.62,0-1.25,0-1.87,0-1.04,0-1.19.15-1.19,1.19,0,2.36,0,4.72,0,7.08Z"/>
  <path class="cls-1" d="m123.11,19.14c0-.09,0-.18,0-.27,0-3.57,0-7.15,0-10.72,0-.3,0-.59-.17-.86-.24-.38-.59-.55-1.03-.57-.42-.01-.84-.01-1.26,0-.17,0-.22-.05-.23-.22-.01-.68-.02-.68.66-.68,1.85,0,3.71,0,5.56,0,.24,0,.34.04.33.31-.02.59,0,.59-.59.59-.44,0-.88-.05-1.31.11-.57.2-.75.44-.75,1.03,0,5.29,0,10.58,0,15.87,0,.29-.09.35-.35.34-.71-.02-1.41-.02-2.12,0-.26,0-.4-.07-.54-.29-2.97-4.65-5.95-9.3-8.93-13.95-.05-.07-.1-.15-.15-.23-.07.12-.04.22-.04.32,0,3.97,0,7.95,0,11.92,0,1,.35,1.35,1.37,1.37.39,0,.78,0,1.17,0,.17,0,.2.05.2.21.01.65.02.65-.64.65-1.94,0-3.87,0-5.81,0-.23,0-.29-.06-.28-.29.01-.58,0-.58.6-.58.29,0,.57,0,.86,0,.76-.02,1.26-.53,1.26-1.29,0-4.63,0-9.25,0-13.88,0-.8-.46-1.27-1.27-1.3-.4-.01-.8-.01-1.2,0-.17,0-.23-.04-.23-.22-.01-.69-.02-.69.68-.69,1.76,0,3.52,0,5.29,0,.22,0,.34.07.46.26,2.73,4.25,5.46,8.5,8.19,12.75.07.11.14.22.21.33.02,0,.04,0,.06-.01Z"/>
  <path class="cls-1" d="m15.76,24.07c-2.63,0-5.27,0-7.9,0-.25,0-.36-.03-.34-.32.03-.54,0-.54.54-.54.31,0,.61,0,.92,0,.73-.02,1.19-.47,1.2-1.19.01-.48,0-.96,0-1.44,0-4.13,0-8.25,0-12.38,0-.18,0-.37-.03-.55-.09-.54-.53-.9-1.1-.92-.43-.01-.86-.01-1.29,0-.18,0-.25-.03-.25-.23,0-.67-.01-.67.66-.67,5.13,0,10.26,0,15.4,0,.3,0,.4.07.42.37.11,1.6.24,3.2.37,4.79.02.25-.04.35-.3.32-.23-.03-.53.07-.69-.04-.17-.12-.09-.43-.12-.66-.11-.76-.44-1.42-.91-2.01-1-1.24-2.31-1.87-3.89-1.92-1.18-.04-2.36-.03-3.53-.02-.64,0-.82.19-.82.83,0,2.01,0,4.02,0,6.04,0,.1-.05.24.14.24.99,0,1.99.06,2.95-.25,1.4-.45,2.15-1.47,2.17-2.99,0-.32.1-.38.39-.36.56.03.56.02.56.58,0,2.37,0,4.74,0,7.11,0,.26-.07.32-.32.31-.58-.02-.59,0-.6-.57,0-.34-.07-.67-.17-.99-.33-1.16-1.16-1.71-2.31-1.91-.89-.15-1.78-.12-2.67-.13-.21,0-.16.13-.17.24,0,1.46,0,2.92,0,4.38,0,.98,0,1.96,0,2.94,0,.2.01.39.07.58.09.32.31.53.64.53,1.64.02,3.3.2,4.92-.25,2.17-.6,3.32-2.11,3.72-4.26.1-.53.09-.53.65-.53.41,0,.4,0,.36.41-.15,1.72-.31,3.44-.44,5.16-.02.29-.13.31-.36.31-2.63,0-5.26,0-7.9,0Z"/>
  <path class="cls-1" d="m91.51,13.65c0-1.89,0-3.78,0-5.67,0-.92-.38-1.3-1.32-1.32-.37,0-.74-.01-1.11,0-.18,0-.22-.05-.22-.22,0-.62-.01-.62.6-.62,2.79,0,5.57,0,8.36,0,.28,0,.37.06.36.35-.03.5,0,.5-.5.5-.32,0-.64,0-.95,0-.74.02-1.24.5-1.24,1.24,0,3.89,0,7.78,0,11.67,0,1.67.89,2.48,2.4,2.87,1.08.29,2.19.28,3.29.05,1.58-.34,2.42-1.35,2.55-2.98.04-.49.05-.98.05-1.47,0-3.32,0-6.64,0-9.96,0-1-.44-1.43-1.44-1.43-.31,0-.62-.02-.92,0-.22.01-.27-.07-.27-.27.01-.57,0-.57.59-.57,1.94,0,3.87,0,5.81,0,.24,0,.31.05.31.3-.02.54,0,.54-.54.54-.31,0-.61,0-.92,0-.83.02-1.31.51-1.31,1.33,0,3.45,0,6.9,0,10.35,0,.84-.08,1.67-.29,2.49-.34,1.36-1.14,2.3-2.46,2.8-2.81,1.05-5.61,1-8.38-.13-1.54-.63-2.31-1.81-2.4-3.46-.1-1.84-.02-3.67-.05-5.51,0-.3,0-.59,0-.89Z"/>
  <path class="cls-1" d="m32.62,24.07c-2.52,0-5.04,0-7.56,0-.25,0-.3-.07-.3-.31.02-.56,0-.55.56-.56.49,0,.98.04,1.46-.12.43-.14.63-.43.67-.85.01-.15.01-.31.01-.46,0-4.53,0-9.07,0-13.6,0-1.04-.41-1.45-1.45-1.45-.34,0-.68,0-1.01,0-.16,0-.23-.03-.24-.21-.02-.68-.02-.68.66-.68,2.76,0,5.51,0,8.27,0,.27,0,.37.04.36.34-.03.56,0,.56-.56.56-.33,0-.66,0-.98,0-.61.03-1.04.42-1.13,1.01-.02.15-.03.3-.03.46,0,4.58,0,9.17,0,13.75,0,1.08.23,1.32,1.31,1.31.86,0,1.72.07,2.58-.08,1.32-.23,2.32-.97,3.08-2.05.83-1.2,1.23-2.56,1.48-3.98.03-.2.09-.27.3-.27.8,0,.8,0,.75.8-.11,2.04-.23,4.08-.33,6.12-.01.23-.08.28-.3.28-2.53,0-5.06,0-7.59,0Z"/>
  <path class="cls-1" d="m47.48,14.14c-1.54,0-3.07,0-4.61,0-.26,0-.36-.02-.33-.34.13-1.36.51-2.64,1.13-3.85.09-.17.19-.23.38-.23,2.71,0,5.43,0,8.14,0,.21,0,.28.05.28.27-.01,1.29-.01,2.57,0,3.86,0,.23-.06.29-.29.29-1.57,0-3.13,0-4.7,0Z"/>
  <path class="cls-1" d="m58.49,14.14c-1.54,0-3.07,0-4.61,0-.23,0-.32-.05-.31-.3.01-1.28.01-2.55,0-3.83,0-.23.06-.29.29-.29,2.67,0,5.35,0,8.02,0,.17,0,.28.03.36.2.65,1.26,1.02,2.6,1.15,4,.02.24-.12.21-.26.21-1.55,0-3.09,0-4.64,0Z"/>
  <path class="cls-1" d="m47.52,15.23c1.55,0,3.09,0,4.64,0,.26,0,.32.08.32.33-.01,1.17-.01,2.35,0,3.52,0,.22-.05.29-.29.29-2.79,0-5.57,0-8.36,0-.2,0-.28-.07-.36-.24-.54-1.17-.84-2.4-.95-3.68-.02-.24.12-.21.27-.21,1.58,0,3.15,0,4.73,0Z"/>
  <path class="cls-1" d="m58.49,15.23c1.55,0,3.09,0,4.64,0,.2,0,.29.04.27.27-.12,1.26-.41,2.47-.94,3.62-.09.18-.18.25-.39.25-2.73,0-5.47,0-8.2,0-.22,0-.3-.05-.3-.29.01-1.19.01-2.39,0-3.58,0-.22.07-.27.28-.27,1.55,0,3.09,0,4.64,0Z"/>
  <path class="cls-1" d="m44.23,20.46h.3c2.54,0,5.08,0,7.62,0,.24,0,.34.04.33.31-.01,1.36-.01,2.72,0,4.07,0,.25-.08.31-.31.29-2.29-.18-4.29-1.03-6.04-2.51-.72-.61-1.34-1.32-1.9-2.16Z"/>
  <path class="cls-1" d="m61.68,20.48c-.79,1.19-1.75,2.15-2.9,2.91-1.48.99-3.11,1.56-4.89,1.72-.23.02-.32-.03-.32-.28.01-1.37,0-2.73,0-4.1,0-.17,0-.28.24-.28,2.58,0,5.16,0,7.74,0,.03,0,.06,0,.13.02Z"/>
</svg>