<?xml version="1.0" encoding="UTF-8"?>
<svg id="Layer_1" data-name="Layer 1" xmlns="http://www.w3.org/2000/svg" viewBox="0 0 78.66 29.47">
  <defs>
    <style>
      .cls-1 {
        fill: #e2e2e2;
        stroke-width: 0px;
      }
    </style>
  </defs>
  <path class="cls-1" d="m43.39,3.09c.58.15,1.16.27,1.73.46,3.34,1.13,5.58,6.51,1.45,9.61.31.21.6.4.88.6,4.21,3.07,3.97,9-.48,11.26-.61.31-1.3.61-1.96.62-4.75.05-9.5.03-14.35.03-.01-.26-.03-.54-.04-.9h1.71V4.17h-1.75c.07-.43.12-.76.18-1.09,4.21,0,8.43,0,12.64,0Zm-6.54,21.67c1.54,0,3.01,0,4.47,0,2.72,0,4.12-1.17,4.54-3.84.1-.65.14-1.32.13-1.98-.03-1.42-.18-2.81-1.1-4.01-.23-.3-.46-.61-.76-.74-.12.07-.34.18-.58.27-3.03,1.02-5.51.47-6.7.16v10.14Zm-.04-20.54c0,2.93-.01,6.14.02,9.02.01,0,1.28.56,3.93.5,2.28-.14,3.47-1.39,3.68-3.67.06-.63.06-1.26.01-1.89-.15-1.94-1.51-3.75-3.15-3.93-1.45-.16-2.93-.03-4.49-.03Z"/>
  <path class="cls-1" d="m18.29,3.09c1.32,3.35,2.66,6.69,3.97,10.05,1.35,3.47,2.71,6.94,4,10.43.32.88.72,1.39,1.71,1.19.17-.03.35.01.56.03v.94c-1.95,0-3.89.02-5.84-.03-.2,0-.46-.42-.57-.69-.92-2.35-1.84-4.7-2.7-7.07-.21-.57-.48-.77-1.1-.76-2.38.04-4.76.03-7.13,0-.55,0-.79.18-.99.67-.95,2.4-1.95,4.78-2.89,7.19-.21.54-.48.75-1.05.7-.75-.06-1.5-.06-2.25-.08v-.9c.36,0,.73-.05,1.08,0,.57.07.85-.17,1.06-.7,2.57-6.37,5.16-12.73,7.74-19.1.1-.23.16-.48.27-.83h-1.79c.05-.41.09-.73.13-1.04,1.93,0,3.85,0,5.78,0Zm-3.36,3.22c-1.31,3.21-2.53,6.22-3.79,9.32h7.35c-1.18-3.1-2.33-6.1-3.56-9.32Z"/>
  <path class="cls-1" d="m74.64,10.13h-1.51c.19-2.71-1.69-3.77-3.67-4.7-2.37-1.11-4.76-1.02-7,.3-3.51,2.07-5.04,5.32-4.95,9.29.08,3.87,1.68,6.99,5.16,8.9,3.44,1.89,7.62.85,10.22-2.43.19-.23.36-.48.57-.76.4.27.79.53,1.17.78v.18c-.81.79-1.58,1.63-2.45,2.35-1.59,1.32-3.5,1.93-5.49,2.34h-3.07c-.75-.2-1.51-.35-2.24-.61-4.94-1.71-8.29-6.78-7.79-11.73.59-5.87,4.49-10.06,10.06-10.82.18-.02.35-.09.52-.14.72,0,1.44,0,2.17,0,.4.09.81.19,1.21.27,1.91.38,3.59,1.25,5.18,2.51.06-.33.1-.54.14-.79h1.32c.15,1.48.3,2.91.45,4.33v.72Z"/>
</svg>