<?xml version="1.0" encoding="utf-8"?>
<!-- Generator: Adobe Illustrator 27.8.1, SVG Export Plug-In . SVG Version: 6.00 Build 0)  -->
<svg version="1.1" id="Layer_1" xmlns="http://www.w3.org/2000/svg" xmlns:xlink="http://www.w3.org/1999/xlink" x="0px" y="0px"
	 viewBox="0 0 141 21" style="enable-background:new 0 0 141 21;" xml:space="preserve">
<style type="text/css">
	.st0{fill:#E2E2E2;}
</style>
<path class="st0" d="M11.9,17.3v3.2H0V0.4h11.8v3.2H3.2v5.2h7.8v3.1H3.2v5.4H11.9z"/>
<path class="st0" d="M14.8,0.4h3v20.1h-3V0.4z"/>
<path class="st0" d="M43.6,18c1.7,0,2.9-0.8,3.6-1.8l2.5,1.5c-1.3,2-3.4,3.1-6.1,3.1c-4.6,0-7.6-3.2-7.6-7.5c0-4.2,3-7.5,7.4-7.5
	c4.2,0,7,3.4,7,7.6c0,0.4-0.1,0.9-0.1,1.3H39.1C39.6,16.9,41.3,18,43.6,18z M47.3,12.1c-0.4-2.5-2.2-3.5-4-3.5
	c-2.3,0-3.8,1.4-4.2,3.5H47.3z"/>
<path class="st0" d="M56.3,5.9v0.3h3.3v3h-3.3v11.4h-3V9.1h-2.1v-3h2.1V5.8c0-3.9,2.1-6.1,6.3-5.8v3C57.5,2.8,56.3,3.6,56.3,5.9z"/>
<path class="st0" d="M67.3,18c1.7,0,2.9-0.8,3.6-1.8l2.5,1.5c-1.3,2-3.4,3.1-6.1,3.1c-4.6,0-7.6-3.2-7.6-7.5c0-4.2,3-7.5,7.4-7.5
	c4.2,0,7,3.4,7,7.6c0,0.4-0.1,0.9-0.1,1.3H62.8C63.3,16.9,65.1,18,67.3,18z M71,12.1c-0.4-2.5-2.2-3.5-4-3.5c-2.3,0-3.8,1.4-4.2,3.5
	H71z"/>
<path class="st0" d="M83.8,5.9v3.4c-2-0.1-4.3,0.8-4.3,4v7.2h-3V6.1h3v2.4C80.3,6.6,82,5.9,83.8,5.9z"/>
<path class="st0" d="M92,18c1.7,0,2.9-0.8,3.6-1.8l2.5,1.5c-1.3,2-3.4,3.1-6.1,3.1c-4.6,0-7.6-3.2-7.6-7.5c0-4.2,3-7.5,7.4-7.5
	c4.2,0,7,3.4,7,7.6c0,0.4-0.1,0.9-0.1,1.3H87.5C88,16.9,89.7,18,92,18z M95.7,12.1c-0.4-2.5-2.2-3.5-4-3.5c-2.3,0-3.8,1.4-4.2,3.5
	H95.7z"/>
<path class="st0" d="M113.9,11.7v8.8h-3V12c0-2.2-1.2-3.3-3.1-3.3c-2,0-3.6,1.2-3.6,4.1v7.7h-3V6.1h3V8c0.9-1.5,2.4-2.2,4.3-2.2
	C111.6,5.8,113.9,7.9,113.9,11.7z"/>
<path class="st0" d="M121.2,9.1V16c0,1.8,1.2,1.8,3.5,1.7v2.8c-4.7,0.6-6.5-0.7-6.5-4.5V9.1h-2.6v-3h2.6V3l3-0.9v4h3.5v3H121.2z"/>
<path class="st0" d="M133.4,18c1.7,0,2.9-0.8,3.6-1.8l2.5,1.5c-1.3,2-3.4,3.1-6.1,3.1c-4.6,0-7.6-3.2-7.6-7.5c0-4.2,3-7.5,7.4-7.5
	c4.2,0,7,3.4,7,7.6c0,0.4-0.1,0.9-0.1,1.3h-11.1C129.4,16.9,131.2,18,133.4,18z M137.1,12.1c-0.4-2.5-2.2-3.5-4-3.5
	c-2.3,0-3.8,1.4-4.2,3.5H137.1z"/>
<path class="st0" d="M31,12.7c2.3-0.9,3.9-3.2,3.9-5.8c0-3.6-2.8-6.5-6.3-6.5h-7.8v3.1H24h4.6c1.7,0,3.1,1.5,3.1,3.4
	c0,1.9-1.4,3.4-3.1,3.4H24h-3.2v10.3H24v-7.3h3.8l4.1,7.3h3.5L31,12.7z"/>
</svg>
