<?xml version="1.0" encoding="UTF-8"?>
<svg id="Layer_1" data-name="Layer 1" xmlns="http://www.w3.org/2000/svg" viewBox="0 0 142.84 48.94">
  <defs>
    <style>
      .cls-1 {
        fill: #e2e2e2;
        stroke-width: 0px;
      }
    </style>
  </defs>
  <path class="cls-1" d="m32.07,7.29c1.12-2.46,2.89-3.85,5.64-3.87,2.79-.02,4.43,1.52,5.5,4,.12-.25.2-.42.28-.59,1.97-4.04,7.83-4.64,10.47-1.06.85,1.15,1.08,2.49,1.09,3.87.02,3.53,0,7.06,0,10.59,0,1.97,0,3.93,0,5.9,0,.81-.27,1.08-1.08,1.08-1.22,0-2.44,0-3.66,0-.81,0-1.07-.27-1.07-1.09,0-4.35.01-8.7,0-13.05,0-.64-.03-1.27-.08-1.91-.17-1.91-1.94-2.87-3.67-2.01-1.11.55-1.57,1.53-1.68,2.69-.07.72-.11,1.45-.11,2.18-.01,4,0,8.01,0,12.01,0,.92-.24,1.17-1.16,1.17-1.18,0-2.37,0-3.55,0-.85,0-1.11-.26-1.11-1.11,0-4.26.02-8.52,0-12.78,0-.81-.07-1.64-.21-2.44-.23-1.28-.99-1.95-2.15-2.03-1.36-.1-2.36.43-2.71,1.69-.28,1-.44,2.07-.45,3.11-.05,4.11-.02,8.23-.02,12.34,0,.99-.23,1.21-1.22,1.21-1.16,0-2.33,0-3.49,0-.83,0-1.09-.26-1.09-1.06,0-7.06,0-14.12,0-21.18,0-.86.24-1.1,1.1-1.1,1.13,0,2.26,0,3.39,0,.78,0,1.04.27,1.05,1.05,0,.79,0,1.58,0,2.36Z"/>
  <path class="cls-1" d="m71.17,12.43c0-.8.08-1.58-.02-2.32-.21-1.54-1.13-2.31-2.69-2.39-1.74-.08-3.01.83-3.5,2.49-.21.72-.46.87-1.18.79-1.14-.13-2.28-.25-3.42-.37-.76-.08-1.01-.41-.84-1.17.51-2.41,1.87-4.18,4.11-5.17,3.2-1.41,6.49-1.53,9.75-.21,2.36.95,3.63,2.78,3.73,5.29.11,3.14.12,6.29.09,9.44-.01,1.51.37,2.83,1.31,3.99.15.18.29.38.39.59.18.36.16.7-.17.98-1.05.9-2.08,1.82-3.14,2.71-.44.37-.87.38-1.27-.02-.64-.66-1.24-1.37-1.84-2.07-.14-.16-.25-.35-.38-.54-.54.47-1.02.93-1.55,1.34-2.42,1.87-5.14,2.15-7.95,1.25-2.33-.74-3.46-2.6-3.76-4.97-.45-3.58.97-6.63,4.25-8.04,1.27-.55,2.66-.83,4.03-1.1,1.33-.26,2.7-.35,4.07-.51Zm.05,3.47c-.5,0-.92-.04-1.33,0-.59.07-1.19.15-1.77.3-2.37.6-3.46,2.23-3.13,4.66.27,1.98,2.14,2.94,3.9,1.99,1.05-.57,1.64-1.51,2-2.61.47-1.41.31-2.87.33-4.34Z"/>
  <path class="cls-1" d="m15.59,12.42c0-.84.1-1.67-.02-2.46-.22-1.48-1.32-2.3-2.88-2.24-1.92.07-3.03,1.16-3.31,2.54-.13.67-.46.82-1.16.74-1.14-.13-2.28-.25-3.42-.36-.75-.08-1.01-.4-.86-1.12.58-2.79,2.28-4.62,4.92-5.57,2.59-.93,5.24-1.02,7.88-.27,3.26.94,4.8,3,4.87,6.57.05,2.78.07,5.57,0,8.35-.04,1.65.37,3.09,1.43,4.34.1.12.2.26.27.41.2.38.18.72-.17,1.03-1.03.89-2.05,1.8-3.09,2.68-.49.41-.9.42-1.35-.05-.77-.79-1.49-1.63-2.27-2.5-.07.07-.22.19-.35.33-2.18,2.28-4.88,3.02-7.92,2.51-2.63-.44-4.21-2.05-4.79-4.66-.74-3.36.54-6.59,3.29-8.25,1.28-.77,2.69-1.19,4.15-1.41,1.58-.24,3.17-.42,4.78-.63Zm.08,3.35c-1.09.15-2.09.22-3.05.44-2.31.54-3.36,2-3.2,4.35.07,1.07.46,2.01,1.53,2.45,1.07.44,2.07.19,2.96-.53.7-.57,1.13-1.32,1.42-2.16.49-1.43.32-2.91.36-4.55Z"/>
  <path class="cls-1" d="m128.32,7.68c.25-.48.47-.97.74-1.43,1.31-2.24,3.45-3.2,6.08-2.76,2.52.42,4.19,2,4.65,4.55.22,1.25.32,2.53.33,3.8.04,4.77.02,9.54.01,14.3,0,.81-.26,1.07-1.08,1.07-1.24,0-2.48,0-3.71,0-.75,0-1.02-.28-1.02-1.02,0-3.99.02-7.97,0-11.96,0-1.07-.06-2.15-.21-3.2-.19-1.33-.93-2.06-2.06-2.22-1.11-.16-2.18.44-2.75,1.56-.55,1.08-.74,2.24-.74,3.44-.02,4.06,0,8.12-.01,12.18,0,.98-.25,1.23-1.22,1.23-1.15,0-2.29,0-3.44,0-.92,0-1.16-.24-1.16-1.16,0-5.22,0-10.45,0-15.67,0-1.8-.01-3.6-.01-5.41,0-.85.25-1.1,1.11-1.1,1.13,0,2.26,0,3.39,0,.76,0,1.02.27,1.02,1.01,0,.93,0,1.86,0,2.78l.09.02Z"/>
  <path class="cls-1" d="m119.56,15.63c-.02,2.9-.61,5.63-2.27,8.06-2.93,4.29-8.92,5.29-12.86,2.14-2.01-1.61-3.1-3.78-3.64-6.24-.8-3.6-.7-7.17.8-10.59,1.54-3.51,4.2-5.52,8.12-5.58,4.02-.06,6.79,1.9,8.48,5.47.92,1.93,1.37,4.27,1.37,6.73Zm-12.95-.54c0,.64-.03,1.27,0,1.91.09,1.6.2,3.2.97,4.65,1.03,1.94,3.5,2.03,4.63.15.33-.55.57-1.18.71-1.81.51-2.26.44-4.56.26-6.84-.09-1.17-.31-2.35-.66-3.46-.46-1.5-1.9-2.14-3.41-1.71-1.22.35-1.81,1.3-2.04,2.41-.31,1.54-.53,4.69-.47,4.7Z"/>
  <path class="cls-1" d="m57.08,44.6c-11.87-.17-23.66-4.49-33.77-13.27-.23-.2-.51-.39-.66-.64-.12-.22-.19-.61-.08-.78.12-.17.49-.23.75-.23.19,0,.39.17.58.28,7.4,4.23,15.32,6.98,23.71,8.39,5.24.88,10.52,1.21,15.82.88,8.05-.51,15.81-2.28,23.25-5.4.2-.08.41-.17.62-.22.53-.12,1.1.12,1.3.56.23.5.08.94-.32,1.27-.38.31-.78.6-1.19.87-4.97,3.37-10.46,5.51-16.28,6.86-4.03.94-8.13,1.43-13.75,1.43Z"/>
  <path class="cls-1" d="m90.41,8.51c-1.53,0-2.93,0-4.32,0-.91,0-1.82,0-2.73,0-.77,0-1.01-.25-1.01-1.02,0-.87,0-1.75,0-2.62,0-.84.22-1.05,1.08-1.06,2.37,0,4.73,0,7.1,0,2.09,0,4.18,0,6.28,0,.84,0,1.07.23,1.07,1.07,0,.56-.04,1.13.01,1.69.07.82-.22,1.48-.67,2.13-2.4,3.42-4.79,6.85-7.19,10.28-.11.16-.22.33-.35.53.95.06,1.85.09,2.75.18,1.71.17,3.34.65,4.89,1.43.7.35,1.02.88,1.01,1.65-.02.95,0,1.89,0,2.84,0,.88-.49,1.17-1.29.79-4.75-2.23-9.5-2.24-14.25.04-.7.34-1.19.05-1.2-.73-.02-1.15,0-2.29,0-3.44,0-.75.25-1.41.68-2.03,2.57-3.68,5.13-7.37,7.69-11.06.13-.19.27-.39.47-.68Z"/>
  <path class="cls-1" d="m88.78,31.05c-.72-.07-1.45-.07-2.17,0-1.4.13-2.76.26-4.12.38-.18.02-.37.06-.54.04-.46-.06-.57-.37-.3-.74.13-.17.3-.32.48-.44,1.57-1.06,3.32-1.62,5.17-1.9,2.06-.31,4.11-.33,6.15.16,1.03.24,1.75,1.21,1.68,2.27-.29,3.97-1.61,7.51-4.54,10.33-.31.29-.67.72-1.12.39-.43-.31-.04-.73.07-1.09.68-2.12,1.39-4.24,2.04-6.37.14-.44.14-.94.12-1.4-.04-.84-.32-1.22-1.13-1.38-.59-.11-1.2-.18-1.79-.24Z"/>
</svg>