<?xml version="1.0" encoding="UTF-8"?>
<svg id="Layer_1" data-name="Layer 1" xmlns="http://www.w3.org/2000/svg" viewBox="0 0 142.84 48.94">
  <defs>
    <style>
      .cls-1 {
        fill: #e2e2e2;
        stroke-width: 0px;
      }
    </style>
  </defs>
  <path class="cls-1" d="m52.17,26.52c0,4.47,0,8.94,0,13.42,0,.21,0,.43-.02.64-.15,1.35-.84,2.09-2.2,2.22-1.81.17-3.62.27-5.44.39-2.89.18-5.78.35-8.68.53-3.63.22-7.25.44-10.88.65-.69.04-1.37.05-2.06.07-1.02.03-1.8-.43-2.4-1.21-1.84-2.38-3.68-4.76-5.49-7.17-.68-.91-1.03-1.93-1.02-3.11.03-7.98.01-15.96.01-23.93,0-1.78.81-2.64,2.59-2.77,4.73-.34,9.47-.68,14.2-1.03,2.73-.2,5.45-.39,8.17-.65,1.9-.18,3.49.34,5.02,1.5,2.35,1.79,4.81,3.45,7.24,5.14.68.47.96,1.06.96,1.9-.03,4.47-.01,8.94-.01,13.42Zm-2.66.2c0-3.77,0-7.54,0-11.3,0-.29,0-.59-.06-.88-.14-.66-.48-.92-1.14-.89-1.5.08-3.01.17-4.51.26-4.28.25-8.57.5-12.85.75-2.58.15-5.17.3-7.75.47-.87.06-1.19.4-1.27,1.26-.02.18-.02.36-.02.54,0,7.52,0,15.04,0,22.56,0,1.48.48,1.93,1.96,1.9.07,0,.13,0,.2,0,1.68-.1,3.37-.2,5.05-.29,6.15-.36,12.3-.72,18.45-1.06,1.56-.09,1.96-.48,1.96-2.04,0-.11,0-.23,0-.34,0-3.64,0-7.27,0-10.91Zm-2.87-15.77s.06-.09.09-.14c-.15-.15-.29-.32-.47-.45-1.23-.9-2.46-1.8-3.69-2.69-.62-.45-1.3-.81-2.07-.83-1.01-.02-2.03.06-3.04.13-5.62.4-11.24.81-16.86,1.21-.83.06-1.67.11-2.5.21-.23.03-.44.23-.66.35.12.19.21.43.38.57.81.67,1.68,1.26,2.44,1.98,1.02.95,2.18,1.19,3.53,1.08,2.4-.2,4.81-.31,7.21-.46,5.08-.31,10.17-.61,15.25-.92.13,0,.25-.03.38-.05Z"/>
  <path class="cls-1" d="m79.22,32.8c-.79,0-1.51.02-2.23-.02-.17,0-.36-.2-.47-.35-1.26-1.73-2.5-3.48-3.75-5.21-1.14-1.58-2.28-3.15-3.42-4.72-.05-.06-.12-.11-.26-.24v10.52h-2.73c0-.16-.03-.33-.03-.5,0-4.8,0-9.6-.01-14.4,0-.45.13-.53.57-.59,1.3-.16,2.15.23,2.93,1.4,2.03,3.03,4.24,5.94,6.37,8.89.06.09.14.16.31.35v-10.62c.86,0,1.66,0,2.46.01.08,0,.2.14.23.23.04.14.01.29.01.44,0,4.72,0,9.44,0,14.16v.65Z"/>
  <path class="cls-1" d="m105.76,27.01c-.03-1.26.15-2.48.78-3.59.99-1.74,2.57-2.53,4.5-2.58.86-.02,1.77.12,2.59.38,1.44.45,2.41,1.5,2.91,2.91.68,1.9.69,3.81-.04,5.71-.54,1.41-1.53,2.39-2.97,2.86-1.58.52-3.17.52-4.7-.15-2.04-.89-2.86-2.62-3.07-4.72-.03-.27,0-.55,0-.83Zm8.14,1.9c.42-1.3.4-2.71-.04-4-.05-.14-.1-.28-.16-.42-.42-.97-1.29-1.39-2.35-1.38-1.06,0-1.88.45-2.34,1.4-.74,1.55-.71,3.15-.08,4.71.41,1.01,1.25,1.52,2.36,1.54,1.14.03,2.04-.43,2.48-1.49.05-.12.09-.24.14-.37Z"/>
  <path class="cls-1" d="m86.65,33.04c-3.28,0-5.45-2.09-5.59-5.38-.06-1.37.02-2.71.65-3.97.96-1.91,2.57-2.75,4.62-2.87,1.21-.07,2.38.14,3.44.78,1.35.81,2.06,2.07,2.39,3.56.33,1.53.26,3.06-.28,4.54-.8,2.19-2.63,3.34-5.24,3.34Zm2.65-4.4c.29-1.08.3-2.22.03-3.31-.05-.2-.11-.39-.18-.58-.36-.98-1.12-1.55-2.19-1.63-1.12-.08-2.05.27-2.59,1.31-.8,1.57-.76,3.19-.12,4.79.46,1.12,1.39,1.6,2.59,1.54,1.11-.06,1.91-.59,2.29-1.62.06-.17.11-.34.16-.51Z"/>
  <path class="cls-1" d="m128.86,32.78h-2.68v-.54c0-1.9,0-3.8,0-5.7,0-.39-.03-.78-.05-1.18-.11-1.98-1.61-2.4-2.93-2.11-1.23.27-1.91,1.23-1.92,2.61,0,2.11,0,4.23,0,6.34v.56h-2.7v-11.69h2.59v1.87c.34-.43.57-.78.86-1.07,1.29-1.27,2.84-1.3,4.43-.8,1.44.45,2.1,1.58,2.33,3,.06.37.08.75.08,1.12,0,2.33,0,4.65,0,6.98v.59Z"/>
  <path class="cls-1" d="m99.94,30.65c0,.65.01,1.24-.01,1.83,0,.11-.17.28-.28.3-1.08.16-2.15.17-3.2-.18-1.2-.4-1.7-1.33-1.71-2.53-.03-2.05-.01-4.09-.02-6.14,0-.19,0-.38,0-.61h-1.8v-2.17h1.79v-2.92h2.7c0,.75,0,1.49,0,2.24q0,.67.65.67c.6,0,1.21,0,1.88,0,0,.38,0,.72,0,1.06s0,.68,0,1.08h-2.47c-.03.13-.06.2-.06.28,0,1.91,0,3.83.04,5.74.01.89.51,1.34,1.4,1.35.34,0,.68,0,1.09,0Z"/>
  <path class="cls-1" d="m101.47,32.78v-11.71h2.64v11.71h-2.64Z"/>
  <path class="cls-1" d="m101.21,17.54c0-.9.67-1.6,1.55-1.61.95-.01,1.65.67,1.65,1.62,0,.88-.67,1.6-1.51,1.61-1,.02-1.68-.64-1.69-1.62Z"/>
  <path class="cls-1" d="m41.03,30.59c.02-.31.04-.46.04-.61,0-3.15,0-6.29,0-9.44,0-.41-.08-.6-.53-.6-.41,0-.81-.11-1.22-.14-.27-.02-.31-.17-.3-.39.04-.6.52-1.14,1.18-1.19,1.7-.13,3.4-.2,5.1-.32.29-.02.37.11.39.36.05.63-.21,1-.82,1.13q-1.09.23-1.09,1.37c0,5.13,0,10.26.01,15.38,0,.41-.14.61-.5.77-.79.34-1.58.63-2.46.6-.68-.03-1.27-.27-1.65-.83-.88-1.26-1.74-2.54-2.57-3.83-1.76-2.74-3.5-5.5-5.24-8.25-.09-.13-.18-.26-.33-.46v11.41c.77.18,1.56.37,2.34.55-.05.76-.52,1.26-1.34,1.36-.75.09-1.5.11-2.25.15-1.11.07-2.22.13-3.34.2-.29.02-.39-.09-.37-.36.04-.44.21-.79.68-.91.42-.11.85-.24,1.27-.37v-15.25c-.52-.04-1.02-.11-1.52-.12-.37-.01-.44-.19-.41-.5.06-.72.56-1.27,1.29-1.32,1.83-.14,3.66-.27,5.49-.36.18,0,.44.18.55.35,1.92,2.91,3.82,5.84,5.73,8.76.59.91,1.19,1.82,1.87,2.86Z"/>
</svg>