<?xml version="1.0" encoding="UTF-8"?>
<svg id="Layer_1" data-name="Layer 1" xmlns="http://www.w3.org/2000/svg" viewBox="0 0 142.84 48.94">
  <defs>
    <style>
      .cls-1 {
        fill: #e2e2e2;
        stroke-width: 0px;
      }
    </style>
  </defs>
  <path class="cls-1" d="m29.94,41.56c-.74-.12-1.48-.24-2.22-.37-2.28-.39-4.56-.78-6.83-1.18-2.16-.37-4.32-.75-6.49-1.12-1.96-.34-3.93-.69-5.89-1.02-.18-.03-.19-.1-.17-.24.22-1.64.43-3.29.64-4.94.21-1.6.42-3.21.63-4.81.19-1.49.38-2.98.57-4.47.22-1.72.45-3.44.68-5.16.06-.49.14-.97.2-1.46.04-.34.23-.54.55-.65.97-.35,1.97-.62,2.96-.94.29-.09.63-.11.84-.29.21-.18.15-.56.23-.84.6-2.3,1.62-4.38,3.34-6.07.75-.74,1.63-1.28,2.69-1.45,1.04-.16,1.96.06,2.69.87.07.08.13.11.24.11,1.27-.05,2.21.54,2.92,1.54.34.49.61,1.02.78,1.59.07.23.17.25.38.18.3-.11.61-.19.91-.27.12-.03.25-.04.37,0,0,.12,0,.23,0,.35,0,6.89,0,13.77,0,20.66,0,3.32,0,6.64,0,9.97Zm-7.2-24.11c-.7,0-1.3.05-1.91.16-1.3.23-2.49.71-3.49,1.59-1.54,1.36-2.21,3.09-2.12,5.13.06,1.3.58,2.36,1.57,3.2.59.5,1.26.9,1.85,1.41.35.3.63.64.77,1.09.29.91-.14,1.72-1,1.9-.26.05-.52.04-.77,0-.99-.17-1.86-.64-2.68-1.19-.14-.1-.2-.1-.24.09-.17.77-.36,1.54-.54,2.31-.14.61-.14.61.37.99,1.47,1.08,3.14,1.5,4.94,1.36,1.48-.12,2.7-.76,3.58-1.99.61-.86.89-1.84.96-2.88.11-1.56-.28-2.94-1.4-4.07-.6-.61-1.32-1.08-2.03-1.54-.45-.29-.91-.57-1.29-.95-.3-.3-.49-.65-.44-1.1.09-.75.52-1.23,1.31-1.43,1.1-.28,2.17-.14,3.22.24.18.07.25.06.31-.15.31-1.21.63-2.42.96-3.62.05-.19-.01-.24-.17-.29-.6-.19-1.22-.26-1.77-.25Zm.4-9.54c-.36-.26-.91-.33-1.48-.19-.91.22-1.62.77-2.23,1.45-1.33,1.47-2.17,3.21-2.7,5.1-.02.07-.07.15-.01.21.06.06.14,0,.21-.02.85-.26,1.69-.52,2.54-.77.15-.04.18-.13.21-.27.54-2.23,1.46-4.22,3.47-5.52Zm1.38,4.03c-.04-.5-.06-.93-.11-1.35-.06-.54-.18-1.07-.38-1.57-.06-.16-.13-.17-.27-.1-.3.17-.58.36-.83.6-.99.97-1.55,2.17-1.96,3.47-.02.06-.09.15-.02.21.06.05.14,0,.21-.03,1.03-.32,2.07-.65,3.11-.96.2-.06.29-.15.26-.27Zm.59-3.25c.35.98.47,1.96.52,2.95,0,.14.08.12.17.09.45-.14.9-.29,1.36-.42.13-.04.15-.09.1-.22-.19-.55-.43-1.08-.8-1.54-.34-.42-.75-.73-1.34-.86Z"/>
  <path class="cls-1" d="m31.34,41.56c0-3.32,0-6.64,0-9.97,0-6.89,0-13.77,0-20.66,0-.12,0-.23,0-.35.16,0,.26.1.36.2.69.67,1.38,1.34,2.06,2.01.1.1.2.15.35.15.74,0,1.47.01,2.21.01.32,0,.5.12.55.47.27,1.92.56,3.84.84,5.76.31,2.09.63,4.18.94,6.27.26,1.75.51,3.51.77,5.26.26,1.75.53,3.51.79,5.26.15,1.02.3,2.04.46,3.06.02.14,0,.23-.17.27-3.03.75-6.06,1.5-9.08,2.25-.02,0-.05,0-.07,0Z"/>
  <path class="cls-1" d="m92.6,22.6c.12-.04.15-.13.2-.2.91-1.12,2.01-1.96,3.46-2.23,2.47-.46,4.4.76,5.06,3.19.34,1.26.32,2.53.14,3.8-.27,1.96-.93,3.78-2.11,5.39-1.11,1.51-2.53,2.61-4.38,3.07-1.29.32-2.58.31-3.84-.17-.14-.05-.29-.23-.42-.15-.12.07-.09.29-.12.44-.36,1.89-.71,3.79-1.06,5.68-.02.14-.08.18-.21.18-1.3,0-2.61,0-3.91,0-.18,0-.18-.06-.15-.2.35-1.82.69-3.64,1.04-5.45.54-2.86,1.08-5.72,1.63-8.57.37-1.93.72-3.87.98-5.82.04-.34.1-.68.13-1.02.01-.16.05-.23.24-.23,1.13,0,2.26,0,3.39,0,.16,0,.19.03.17.2-.08.66-.15,1.33-.22,1.99,0,.03,0,.06,0,.11Zm4.52,3.46c0-.52-.05-1.02-.26-1.49-.26-.59-.69-.92-1.35-.96-.7-.03-1.26.27-1.74.74-.8.78-1.25,1.76-1.53,2.82-.41,1.56-.58,3.16-.9,4.74-.02.11.02.17.1.23.74.5,1.54.68,2.4.38.71-.24,1.22-.75,1.63-1.35,1.08-1.53,1.55-3.26,1.64-5.11Z"/>
  <path class="cls-1" d="m62.72,22.32c.1,0,.13-.1.18-.16.95-1.06,2.08-1.79,3.51-2.02.69-.11,1.39-.11,2.06.1,1.26.39,1.93,1.3,2.2,2.55.2.95.13,1.9-.03,2.84-.45,2.78-1.04,5.54-1.55,8.31-.09.48-.19.95-.27,1.43-.02.13-.06.18-.2.18-1.31,0-2.63,0-3.94,0-.25,0-.14-.15-.13-.24.24-1.27.48-2.54.72-3.81.32-1.7.64-3.41.95-5.11.09-.49.1-1,.08-1.5-.05-1.03-.79-1.57-1.79-1.28-.68.2-1.16.67-1.57,1.22-.74,1-1.12,2.15-1.35,3.35-.46,2.38-.91,4.76-1.37,7.15-.03.16-.07.23-.26.23-1.28-.01-2.56-.01-3.84,0-.23,0-.21-.08-.18-.24.65-3.4,1.29-6.8,1.94-10.2.61-3.21,1.22-6.42,1.84-9.63.1-.52.2-1.05.3-1.57.02-.14.06-.19.22-.19,1.3,0,2.59,0,3.89,0,.19,0,.2.06.17.22-.53,2.73-1.05,5.47-1.57,8.2-.01.05-.04.11,0,.17Z"/>
  <path class="cls-1" d="m120.61,20.42h1.57c.89,0,1.79,0,2.68,0,.16,0,.21.04.23.2.28,2.72.56,5.45.84,8.17.06.61.11,1.21.17,1.82,0,.07,0,.15.07.24.13-.38.25-.74.38-1.09,1.08-3.08,2.26-6.12,3.45-9.16.04-.11.08-.18.22-.18,1.42,0,2.84,0,4.26,0,.05.06,0,.1-.01.14-1.82,3.91-3.63,7.82-5.49,11.72-1.06,2.22-2.29,4.35-3.84,6.28-1.24,1.54-2.7,2.8-4.56,3.54-.29.12-.6.21-.9.31-.11.04-.19.04-.24-.11-.35-1.11-.71-2.22-1.08-3.32-.06-.17.04-.17.14-.21,1.05-.37,2.01-.89,2.86-1.61.61-.52,1.13-1.13,1.56-1.82.24-.39.28-.77.2-1.21-.85-4.54-1.69-9.08-2.53-13.62,0-.01,0-.03.01-.06Z"/>
  <path class="cls-1" d="m71.9,29.79c.04-2.28.63-4.4,1.98-6.26,1.28-1.78,2.98-2.95,5.17-3.33,1.6-.28,3.17-.17,4.6.7,1.39.85,2.22,2.13,2.45,3.7.53,3.7-.44,6.96-3.32,9.45-2.03,1.76-4.45,2.25-7.04,1.5-2.12-.61-3.28-2.16-3.71-4.28-.1-.49-.13-.99-.13-1.5Zm4.35-.1c0,.49.04.95.18,1.41.46,1.51,2.01,1.98,3.23.98.47-.38.8-.87,1.07-1.4.6-1.16.92-2.41,1.06-3.7.08-.72.12-1.45-.1-2.16-.23-.75-.68-1.28-1.49-1.41-.59-.1-1.13.05-1.61.39-.47.34-.82.78-1.1,1.28-.82,1.44-1.17,3-1.24,4.62Z"/>
  <path class="cls-1" d="m117.69,23.59c-.43,0-.87,0-1.3,0-.14,0-.19.04-.21.18-.52,2.75-1.04,5.5-1.56,8.25-.21,1.12-.43,2.24-.64,3.37-.02.13-.06.18-.2.18-1.3,0-2.61,0-3.91,0-.17,0-.19-.05-.16-.2.26-1.34.51-2.69.76-4.03.48-2.51.95-5.01,1.43-7.51.03-.16.01-.24-.18-.23-.53.01-1.05,0-1.58,0-.16,0-.19-.04-.16-.2.19-.92.36-1.85.53-2.77.03-.18.1-.26.3-.25.48.02.97-.01,1.45.01.26.01.31-.09.35-.31.16-1.01.42-1.99.85-2.92,1.27-2.74,3.59-3.86,6.34-3.73.58.03,1.15.11,1.7.28.14.04.19.1.15.26-.26.98-.5,1.97-.74,2.96-.04.17-.09.18-.25.14-.54-.13-1.08-.23-1.64-.1-.71.16-1.19.63-1.56,1.24-.38.63-.48,1.34-.64,2.04-.04.17.09.12.16.12.84,0,1.69,0,2.53,0,.19,0,.26.02.21.24-.2.93-.37,1.86-.55,2.8-.03.15-.09.19-.23.18-.43,0-.85,0-1.28,0Z"/>
  <path class="cls-1" d="m52.48,20.12c.96.01,1.92.09,2.84.4.67.23.67.23.45.88-.24.74-.5,1.48-.73,2.23-.05.17-.1.22-.28.14-.86-.35-1.75-.54-2.69-.49-.39.02-.76.1-1.1.3-.73.43-.87,1.3-.32,1.95.28.32.63.55.99.75.65.37,1.29.76,1.86,1.26,1.54,1.36,1.89,2.98,1.13,4.99-.52,1.38-1.59,2.26-2.95,2.75-2.4.86-4.78.79-7.11-.28-.04-.02-.07-.04-.11-.05-.22-.08-.27-.19-.18-.43.32-.84.61-1.69.89-2.54.06-.19.12-.19.29-.11,1.07.51,2.18.84,3.37.83.29,0,.56-.05.83-.15.94-.35,1.26-1.4.67-2.21-.29-.39-.68-.66-1.09-.91-.51-.31-1.01-.61-1.48-.98-2.69-2.11-1.83-5.14-.29-6.6.99-.94,2.18-1.42,3.5-1.63.5-.08,1-.12,1.5-.1Z"/>
  <path class="cls-1" d="m108.91,20.42c-.18.95-.36,1.87-.54,2.79-.54,2.83-1.09,5.66-1.63,8.49-.24,1.23-.47,2.46-.7,3.68-.02.1-.04.17-.17.16-1.36,0-2.72,0-4.09,0-.01,0-.03-.01-.05-.02.44-2.33.88-4.66,1.33-7,.49-2.6.99-5.21,1.47-7.81.04-.22.1-.31.35-.31,1.25.02,2.49,0,3.74,0h.29Z"/>
  <path class="cls-1" d="m107.32,18.58c-1.16.01-1.92-.69-2.05-1.88-.19-1.75,1.41-3.12,3.11-2.65.93.26,1.52,1.12,1.46,2.13-.09,1.45-1.07,2.38-2.52,2.4Z"/>
</svg>