<?xml version="1.0" encoding="UTF-8"?>
<svg id="Layer_1" data-name="Layer 1" xmlns="http://www.w3.org/2000/svg" viewBox="0 0 142.84 58.76">
  <defs>
    <style>
      .cls-1 {
        fill: #e2e2e2;
        stroke-width: 0px;
      }
    </style>
  </defs>
  <path class="cls-1" d="m5.45,36.09c.12-.04.25-.13.37-.13,2.82,0,5.63-.02,8.45.04,1.5.03,2.9.48,4.08,1.44,1.49,1.21,2.09,2.83,2.07,4.7-.01,1.33-.37,2.56-1.21,3.62-.46.59-1.02,1.06-1.68,1.42-.08.04-.16.09-.26.15.05.11.09.21.14.31,1.1,2.24,2.19,4.48,3.29,6.72.19.39.13.49-.3.49-1.52,0-3.04,0-4.56,0-.31,0-.48-.1-.61-.39-.9-2.04-1.82-4.07-2.73-6.1-.08-.17-.17-.24-.36-.24-.48.02-.96.02-1.44,0-.24,0-.31.08-.31.31,0,1.97,0,3.95,0,5.92,0,.46-.03.49-.48.49-1.36,0-2.71,0-4.07,0-.13,0-.27-.1-.4-.16,0-6.2,0-12.4,0-18.6Zm4.95,6.03c0,.57,0,1.15,0,1.72,0,.17.05.26.23.26,1.01-.01,2.03.02,3.04-.04,1.03-.06,1.73-.8,1.79-1.76.07-1.12-.47-1.88-1.52-2.12-.21-.05-.42-.07-.64-.07-.87,0-1.73,0-2.6,0-.25,0-.31.09-.3.32.01.57,0,1.13,0,1.7Z"/>
  <path class="cls-1" d="m64,55.2c-.56-.08-1.12-.14-1.67-.26-2.81-.6-4.7-2.57-5.17-5.4-.12-.7-.17-1.42-.17-2.12-.02-3.66,0-7.31,0-10.97,0-.45.03-.48.49-.48,1.33,0,2.66,0,3.99,0,.43,0,.48.05.48.47,0,3.75,0,7.5,0,11.25,0,.47.05.97.19,1.42.38,1.24,1.56,1.9,2.91,1.69,1.24-.19,2.02-1.01,2.16-2.3.03-.28.05-.56.05-.85,0-3.74,0-7.49,0-11.23,0-.43.04-.47.47-.47,1.34,0,2.68,0,4.02,0,.41,0,.46.04.46.46,0,3.81,0,7.62,0,11.43,0,1.43-.3,2.81-1.04,4.07-1.02,1.73-2.58,2.68-4.52,3.07-.48.1-.97.14-1.45.21h-1.19Z"/>
  <path class="cls-1" d="m123.88,55.2c-.48-.07-.97-.12-1.44-.23-2.49-.57-4.11-2.09-4.9-4.51-.3-.93-.46-1.88-.49-2.85-.07-1.8-.12-3.61.09-5.4.18-1.59.68-3.06,1.74-4.3,1.04-1.22,2.4-1.88,3.97-2.14,1.7-.28,3.37-.19,4.98.48,1.7.71,2.86,1.95,3.54,3.64.11.27.08.35-.19.46-1.2.52-2.41,1.03-3.61,1.56-.22.1-.37.06-.48-.17-.09-.19-.2-.38-.31-.56-.62-.95-1.56-1.35-2.69-1.15-1.04.19-1.66.82-1.9,1.97-.08.41-.14.83-.14,1.25,0,1.62,0,3.24.05,4.86.01.41.12.83.26,1.23.32.92,1.06,1.42,2.03,1.48,1.22.07,2.05-.47,2.6-1.52.24-.46.18-.57.83-.29,1.1.48,2.2.95,3.31,1.43.34.15.37.21.23.54-.97,2.29-2.71,3.61-5.13,4.06-.36.07-.73.11-1.09.16h-1.24Z"/>
  <path class="cls-1" d="m137.39,6.3v4.69c0,.52-.15.72-.66.84-.63.16-1.27.31-1.9.46-3.9.92-7.8,1.84-11.69,2.76-.49.12-.97.1-1.44-.05-1.95-.64-3.9-1.26-5.85-1.9-.47-.15-.94-.16-1.42-.05-4.33,1.04-8.66,2.07-12.99,3.1-.79.19-1.3-.21-1.3-1.03,0-2.97,0-5.94,0-8.91,0-.64.23-.94.86-1.09,4.49-1.07,8.97-2.14,13.46-3.21.48-.11.95-.08,1.42.07,1.91.63,3.83,1.24,5.75,1.87.5.17,1,.19,1.52.07,4.34-1.03,8.68-2.06,13.02-3.09.31-.07.61-.11.89.07.21.14.34.3.34.59-.01,1.61,0,3.21,0,4.82Z"/>
  <path class="cls-1" d="m137.39,20.09c0,1.57,0,3.14,0,4.71,0,.47-.16.69-.64.81-.8.2-1.6.38-2.4.57-3.76.89-7.51,1.77-11.27,2.66-.46.11-.92.09-1.37-.06-1.93-.63-3.87-1.25-5.8-1.88-.51-.17-1.02-.18-1.54-.06-4.33,1.04-8.66,2.07-12.99,3.09-.71.17-1.24-.24-1.24-.97,0-3.01,0-6.03,0-9.04,0-.58.25-.89.81-1.03,4.3-1.02,8.59-2.04,12.89-3.07.5-.12,1-.31,1.52-.2.39.08.78.2,1.16.33,1.7.55,3.39,1.09,5.09,1.65.53.18,1.05.19,1.59.06,4.35-1.03,8.71-2.06,13.07-3.09.28-.07.55-.06.79.1.21.14.33.31.33.59-.01,1.61,0,3.21,0,4.82Z"/>
  <path class="cls-1" d="m87.52,45.08c.13.06.23.11.33.15,1,.51,1.67,1.31,2.05,2.35.52,1.44.45,2.87-.17,4.26-.67,1.49-1.93,2.27-3.45,2.69-.95.26-1.93.33-2.91.33-2.44,0-4.88,0-7.32,0-.44,0-.49-.05-.49-.48,0-5.97,0-11.95,0-17.92,0-.44.05-.49.49-.49,2.77,0,5.55,0,8.32.03,1.01.01,1.99.23,2.92.66,1.6.76,2.43,2.06,2.59,3.8.06.66.02,1.32-.16,1.97-.31,1.09-.96,1.92-1.93,2.5-.07.04-.14.09-.25.15Zm-7.01,3.97c0,.61,0,1.22,0,1.83,0,.18.04.3.25.29.85-.01,1.7.02,2.55-.04,1.47-.09,2.06-1.06,1.94-2.37-.1-1.07-.71-1.71-1.78-1.8-.88-.07-1.77-.03-2.65-.06-.24,0-.32.08-.31.31,0,.61,0,1.22,0,1.83Zm0-7.45c0,.56,0,1.11,0,1.67,0,.15.02.28.21.28.87-.02,1.73,0,2.6-.06.54-.04,1.03-.27,1.35-.75.84-1.29.08-2.92-1.44-3.04-.82-.06-1.65-.03-2.47-.05-.2,0-.25.1-.25.27,0,.56,0,1.11,0,1.67Z"/>
  <path class="cls-1" d="m34.77,24.65c1.15,2.35,2.29,4.68,3.42,7,.04.08.08.15.11.23.05.16-.02.25-.18.28-.07.01-.14,0-.21,0-1.52,0-3.04,0-4.56,0-.33,0-.49-.12-.62-.41-.9-2.03-1.82-4.05-2.72-6.08-.08-.18-.17-.26-.38-.25-.45.02-.91,0-1.37,0-.36,0-.36,0-.36.36,0,1.96,0,3.91,0,5.87,0,.45-.05.5-.5.5-1.34,0-2.68,0-4.02,0-.38,0-.44-.06-.44-.43,0-6.01,0-12.02,0-18.03,0-.38.06-.44.45-.44,2.54,0,5.08,0,7.63,0,1.12,0,2.21.14,3.25.57,2.33.96,3.52,2.74,3.64,5.23.07,1.46-.28,2.81-1.18,3.98-.46.6-1.03,1.07-1.69,1.44-.08.05-.16.09-.26.15Zm-6.87-5.25c0,.55,0,1.1,0,1.65,0,.36,0,.36.35.36.69,0,1.37,0,2.06,0,.35,0,.71,0,1.05-.06.97-.17,1.58-.88,1.6-1.85.03-1.01-.51-1.75-1.48-1.98-.23-.06-.47-.08-.71-.09-.87-.01-1.73,0-2.6,0-.22,0-.28.08-.28.29,0,.57,0,1.13,0,1.7Z"/>
  <path class="cls-1" d="m60.26,22.72c0-2.98,0-5.96,0-8.93,0-.48.04-.51.51-.51,2.39,0,4.77,0,7.16,0,1.11,0,2.19.14,3.23.53,2.02.77,3.21,2.26,3.75,4.32.31,1.17.39,2.37.39,3.57,0,1.41-.05,2.83-.14,4.24-.07,1.03-.36,2.03-.84,2.95-.97,1.83-2.55,2.78-4.53,3.12-.62.11-1.26.15-1.89.16-2.38.02-4.76,0-7.14,0-.47,0-.5-.03-.5-.49,0-2.99,0-5.97,0-8.96Zm4.96,0c0,1.6,0,3.21,0,4.81,0,.19.02.32.26.31.74-.02,1.48,0,2.21-.06,1.36-.09,2.22-.82,2.43-2.16.31-1.88.29-3.78.03-5.66-.2-1.42-.92-2.09-2.35-2.28-.74-.1-1.49-.06-2.24-.07-.33,0-.34,0-.34.35,0,1.59,0,3.17,0,4.76Z"/>
  <path class="cls-1" d="m55.57,32.18c-.72,0-1.44,0-2.16,0-.35,0-.43-.06-.54-.39-.27-.86-.53-1.72-.79-2.58-.05-.16-.11-.23-.3-.23-1.92,0-3.85,0-5.77,0-.18,0-.25.06-.3.22-.25.85-.52,1.7-.78,2.56-.11.37-.18.42-.57.42-1.44,0-2.89,0-4.33,0-.35,0-.4-.07-.28-.4,2.18-6.04,4.36-12.08,6.53-18.12.1-.27.26-.39.55-.39,1.43,0,2.87,0,4.3,0,.35,0,.43.05.55.39,2.13,6.04,4.26,12.07,6.39,18.11.11.33.06.4-.28.4-.74,0-1.48,0-2.22,0Zm-4.81-7.27c-.6-1.98-1.18-3.93-1.77-5.88-.03,0-.06,0-.08,0-.61,1.95-1.23,3.9-1.85,5.87h3.71Z"/>
  <path class="cls-1" d="m78.34,22.72c0-2.98,0-5.96,0-8.94,0-.47.04-.51.52-.51,4.03,0,8.06,0,12.08,0,.45,0,.49.04.49.48,0,1.07,0,2.15,0,3.22,0,.39-.06.45-.45.45-2.43,0-4.86,0-7.29,0q-.39,0-.39.38c0,.82,0,1.63,0,2.45,0,.36,0,.37.38.37,1.97,0,3.93,0,5.9,0,.43,0,.48.05.48.47,0,1.03,0,2.06,0,3.09,0,.45-.04.49-.51.49-1.96,0-3.92,0-5.87,0-.37,0-.38,0-.38.37,0,.88,0,1.77,0,2.65,0,.33.01.35.35.35,2.44,0,4.88,0,7.32,0,.42,0,.46.04.46.45,0,1.08,0,2.16,0,3.24,0,.39-.05.44-.45.44-4.06,0-8.12,0-12.19,0-.4,0-.45-.05-.45-.47,0-3,0-5.99,0-8.99Z"/>
  <path class="cls-1" d="m23.48,45.41c0-3,0-5.99,0-8.99,0-.41.04-.45.46-.45,4.05,0,8.11,0,12.16,0,.42,0,.47.05.47.48,0,1.05,0,2.09,0,3.14,0,.47-.04.52-.51.52-2.42,0-4.84,0-7.27,0q-.36,0-.36.35c0,.84,0,1.68,0,2.52,0,.25.08.32.33.32,1.99,0,3.99,0,5.98,0,.41,0,.45.05.45.46,0,1.03,0,2.06,0,3.09,0,.47-.04.51-.52.51-1.95,0-3.9,0-5.85,0q-.38,0-.38.38c0,.87,0,1.73,0,2.6q0,.38.37.38c2.43,0,4.86,0,7.29,0,.42,0,.48.05.48.47,0,1.07,0,2.15,0,3.22,0,.39-.06.45-.45.45-4.07,0-8.14,0-12.21,0-.38,0-.43-.04-.43-.43,0-3,0-6.01,0-9.01Z"/>
  <path class="cls-1" d="m39.47,45.39c0-2.98,0-5.96,0-8.94,0-.45.04-.49.48-.49,2.73,0,5.46-.02,8.19.03,1.57.03,3.05.48,4.3,1.5,1.21.99,1.82,2.3,2.01,3.82.17,1.44,0,2.83-.73,4.11-.89,1.58-2.29,2.48-4.03,2.86-.75.16-1.53.22-2.3.26-.88.04-1.77.02-2.65,0-.25,0-.33.08-.33.33,0,1.84,0,3.67,0,5.51,0,.44-.04.47-.47.47-1.34,0-2.68,0-4.02,0-.42,0-.47-.05-.47-.48,0-3,0-5.99,0-8.99Zm4.95-3.13c0,.63,0,1.25,0,1.88,0,.17.05.28.25.28.97-.01,1.94.02,2.91-.04,1.15-.07,1.89-.85,1.97-1.99.07-1.12-.55-1.96-1.67-2.2-.22-.05-.44-.07-.66-.07-.83,0-1.67,0-2.5,0-.23,0-.3.09-.3.3,0,.62,0,1.24,0,1.85Z"/>
  <path class="cls-1" d="m13.1,13.28c2.39,0,4.77,0,7.16,0,.42,0,.48.06.48.47,0,1.14,0,2.28,0,3.42,0,.37-.06.44-.43.44-1.43,0-2.87,0-4.3,0q-.42,0-.42.41c0,4.55,0,9.1,0,13.65,0,.47-.04.51-.52.51-1.32,0-2.64,0-3.97,0-.43,0-.47-.04-.47-.47,0-4.55,0-9.1,0-13.65q0-.44-.43-.44c-1.41,0-2.82,0-4.23,0-.46,0-.49-.03-.49-.48,0-1.13,0-2.27,0-3.4,0-.41.05-.46.46-.46,2.39,0,4.77,0,7.16,0Z"/>
  <path class="cls-1" d="m93.16,45.4c0-2.99,0-5.97,0-8.96,0-.43.04-.47.47-.47,1.33,0,2.66,0,3.99,0,.45,0,.49.04.49.48,0,4.56,0,9.12,0,13.67q0,.4.39.4c2.57,0,5.14,0,7.7,0,.4,0,.46.06.46.46,0,1.16,0,2.32,0,3.48,0,.33-.06.4-.39.4-4.24,0-8.49,0-12.73,0-.34,0-.39-.06-.39-.42,0-3.01,0-6.03,0-9.04Z"/>
  <path class="cls-1" d="m109.08,45.41c0-2.99,0-5.98,0-8.96,0-.45.03-.48.49-.48,1.34,0,2.68,0,4.02,0,.39,0,.45.06.45.45,0,6,0,12,0,18,0,.38-.06.44-.43.44-1.37,0-2.75,0-4.12,0-.35,0-.4-.05-.4-.41,0-3.01,0-6.03,0-9.04Z"/>
</svg>