<?xml version="1.0" encoding="utf-8"?>
<!-- Generator: Adobe Illustrator 27.8.1, SVG Export Plug-In . SVG Version: 6.00 Build 0)  -->
<svg version="1.1" id="Layer_1" xmlns="http://www.w3.org/2000/svg" xmlns:xlink="http://www.w3.org/1999/xlink" x="0px" y="0px"
	 viewBox="0 0 233.8 39.1" style="enable-background:new 0 0 233.8 39.1;" xml:space="preserve">
<style type="text/css">
	.st0{enable-background:new    ;}
	.st1{fill:#DBDBDB;}
	.st2{fill:#939393;}
</style>
<g class="st0">
	<path class="st1" d="M17.8,8.4l8.7,22.3c0.3,0.9,0.7,1.4,1.1,1.8c0.4,0.3,0.8,0.5,1.1,0.5v0.7c-0.7,0-1.6-0.1-2.5-0.1
		c-1,0-1.9,0-2.9,0c-1.1,0-2.1,0-3.1,0c-1,0-1.7,0-2.3,0.1V33c1.2,0,2-0.3,2.3-0.6c0.3-0.4,0.2-1.2-0.2-2.4l-6.1-16.6l0.6-0.9
		L9.1,26.6C8.6,28,8.3,29,8.2,29.9c-0.1,0.8,0,1.5,0.2,1.9c0.2,0.5,0.6,0.8,1.1,0.9c0.5,0.2,1.1,0.3,1.8,0.3v0.7
		c-0.8,0-1.5-0.1-2.2-0.1c-0.7,0-1.4,0-2.2,0c-0.5,0-1,0-1.5,0c-0.5,0-0.9,0-1.2,0.1V33c0.5-0.1,1-0.4,1.5-1c0.5-0.5,1-1.5,1.5-2.8
		l8.1-20.9c0.4,0,0.8,0,1.2,0C17,8.5,17.4,8.4,17.8,8.4z M20.3,23.5v0.7H9.7l0.4-0.7H20.3z"/>
	<path class="st1" d="M37.8,14.8c1,0,2,0.2,2.8,0.5c0.8,0.3,1.4,0.9,1.9,1.7L42,17.4c-0.3-0.6-0.7-1-1.2-1.2
		c-0.5-0.2-1.1-0.4-1.6-0.4c-1.2,0-2.2,0.7-2.9,2.1s-1.1,3.6-1,6.5c0,2,0.1,3.6,0.4,4.8c0.3,1.2,0.7,2.1,1.2,2.6
		c0.5,0.5,1.1,0.8,1.8,0.8c0.8,0,1.5-0.3,2.2-1c0.6-0.6,1-1.5,1-2.6l0.2,1.2c-0.4,1.3-0.9,2.2-1.7,2.9c-0.8,0.7-1.8,1-3.1,1
		c-1.4,0-2.7-0.3-3.8-1s-2-1.8-2.6-3.2c-0.6-1.4-0.9-3.3-0.9-5.6c0-2.2,0.3-4,1-5.4c0.7-1.4,1.6-2.5,2.8-3.2
		C34.9,15.2,36.3,14.8,37.8,14.8z M46.9,5.8v24c0,1.1,0.2,1.9,0.5,2.4c0.3,0.5,0.9,0.8,1.8,0.8v0.7c-0.7-0.1-1.5-0.1-2.2-0.1
		c-1,0-1.9,0-2.8,0.1c-0.9,0.1-1.7,0.2-2.4,0.4v-24c0-1.1-0.2-1.9-0.5-2.4C40.9,7.2,40.3,7,39.5,7V6.2c0.8,0.1,1.5,0.1,2.2,0.1
		c1,0,1.9,0,2.8-0.1C45.3,6.1,46.1,6,46.9,5.8z"/>
	<path class="st1" d="M62.9,14.8c0.8,0,1.4,0.2,1.9,0.5s0.8,0.7,1.1,1.2c0.2,0.5,0.3,1,0.3,1.6c0,0.9-0.3,1.6-0.8,2.2
		s-1.2,0.8-2,0.8c-0.8,0-1.5-0.2-1.9-0.6c-0.5-0.4-0.7-1-0.7-1.7c0-0.7,0.1-1.2,0.4-1.7c0.3-0.4,0.7-0.8,1.1-1.1
		c-0.3-0.1-0.7-0.1-1,0c-0.5,0.1-0.9,0.3-1.3,0.6c-0.4,0.3-0.7,0.7-1,1.1c-0.3,0.4-0.5,0.9-0.7,1.4c-0.2,0.5-0.2,1-0.2,1.5v9.5
		c0,1.1,0.3,1.9,0.8,2.3c0.6,0.4,1.4,0.6,2.5,0.6v0.7c-0.5,0-1.3-0.1-2.4-0.1c-1,0-2.1-0.1-3.3-0.1c-1,0-1.9,0-2.9,0.1
		c-1,0-1.7,0.1-2.2,0.1V33c0.8,0,1.4-0.2,1.8-0.5c0.3-0.4,0.5-1,0.5-2V19.2c0-1.1-0.2-1.9-0.5-2.4c-0.3-0.5-0.9-0.8-1.8-0.8v-0.7
		c0.8,0.1,1.5,0.1,2.2,0.1c1,0,1.9,0,2.8-0.1c0.9-0.1,1.7-0.2,2.4-0.4v3.3c0.3-0.6,0.7-1.2,1.1-1.7c0.5-0.5,1-0.9,1.6-1.2
		C61.5,15,62.2,14.8,62.9,14.8z"/>
	<path class="st1" d="M74.7,14.9v15.5c0,1,0.2,1.7,0.5,2c0.3,0.4,0.9,0.5,1.8,0.5v0.7c-0.4,0-1.1-0.1-2-0.1c-0.9,0-1.8-0.1-2.7-0.1
		s-1.9,0-2.8,0.1c-1,0-1.7,0.1-2.1,0.1V33c0.8,0,1.4-0.2,1.8-0.5c0.3-0.4,0.5-1,0.5-2V19.2c0-1.1-0.2-1.9-0.5-2.4
		c-0.3-0.5-0.9-0.8-1.8-0.8v-0.7c0.8,0.1,1.5,0.1,2.2,0.1c1,0,1.9,0,2.8-0.1C73.2,15.2,74,15.1,74.7,14.9z M72,6.1
		c1,0,1.8,0.2,2.4,0.7s0.9,1.2,0.9,2s-0.3,1.5-0.9,2S73,11.6,72,11.6s-1.8-0.2-2.4-0.7s-0.9-1.2-0.9-2s0.3-1.5,0.9-2S71,6.1,72,6.1z
		"/>
	<path class="st1" d="M83.5,34c-1.1,0-2-0.2-2.7-0.6c-0.7-0.4-1.2-0.9-1.6-1.6c-0.3-0.7-0.5-1.4-0.5-2.2c0-1,0.2-1.9,0.7-2.5
		s1.1-1.2,1.8-1.6c0.7-0.4,1.5-0.7,2.3-1c0.8-0.3,1.6-0.5,2.4-0.8c0.7-0.2,1.4-0.5,1.8-0.9c0.5-0.3,0.7-0.8,0.7-1.3v-2.8
		c0-0.6-0.1-1.2-0.3-1.7c-0.2-0.5-0.5-0.9-0.9-1.1c-0.4-0.3-1-0.4-1.6-0.4c-0.5,0-1,0.1-1.4,0.2c-0.5,0.1-0.9,0.4-1.2,0.7
		c0.7,0.2,1.2,0.6,1.6,1.1c0.4,0.5,0.6,1,0.6,1.7c0,0.8-0.3,1.5-0.8,1.9c-0.6,0.5-1.2,0.7-2,0.7c-0.9,0-1.5-0.3-1.9-0.8
		c-0.4-0.5-0.7-1.2-0.7-1.9c0-0.7,0.2-1.3,0.5-1.7c0.3-0.5,0.8-0.9,1.4-1.3c0.7-0.4,1.5-0.7,2.4-0.9c0.9-0.2,2-0.3,3-0.3
		c1.1,0,2.1,0.1,3,0.3c0.9,0.2,1.6,0.6,2.2,1.2c0.5,0.5,0.9,1.2,1.1,2c0.2,0.8,0.2,1.8,0.2,3v9.7c0,0.6,0.1,1,0.2,1.2
		c0.1,0.2,0.3,0.3,0.6,0.3c0.2,0,0.4-0.1,0.6-0.2c0.2-0.1,0.4-0.3,0.7-0.4l0.4,0.6c-0.5,0.4-1.1,0.8-1.7,1S92.9,34,92.1,34
		c-0.9,0-1.6-0.1-2.1-0.4c-0.5-0.2-0.9-0.6-1.1-1c-0.2-0.4-0.3-0.9-0.3-1.5c-0.6,0.9-1.3,1.6-2.1,2.1C85.6,33.7,84.6,34,83.5,34z
		 M86,31.7c0.5,0,0.9-0.1,1.3-0.3s0.8-0.6,1.1-1.1v-7.3c-0.2,0.4-0.5,0.7-0.9,1c-0.4,0.3-0.8,0.6-1.2,0.9c-0.4,0.3-0.8,0.6-1.2,1
		c-0.4,0.4-0.7,0.8-0.9,1.3c-0.2,0.5-0.4,1.2-0.4,1.9c0,0.9,0.2,1.6,0.6,2.1C84.8,31.5,85.3,31.7,86,31.7z M90.9,4.6
		c0.4,0.3,0.6,0.7,0.6,1.3c0,0.5-0.2,1.1-0.5,1.5c-0.4,0.5-0.8,0.9-1.4,1.3c-0.5,0.4-1.2,0.8-1.9,1.4c-0.7,0.5-1.6,1.3-2.7,2.3
		l-0.4-0.3c0.7-1.3,1.2-2.4,1.6-3.2s0.6-1.6,0.9-2.2c0.2-0.6,0.6-1.2,1-1.6c0.4-0.5,0.8-0.8,1.4-0.8C89.9,4.1,90.4,4.2,90.9,4.6z"/>
	<path class="st1" d="M110.3,14.8c1,0,1.8,0.1,2.4,0.4c0.6,0.2,1.1,0.6,1.5,1c0.4,0.5,0.7,1,0.8,1.7c0.2,0.7,0.3,1.7,0.3,2.9v9.6
		c0,1,0.2,1.7,0.5,2c0.3,0.4,0.9,0.5,1.8,0.5v0.7c-0.5,0-1.1-0.1-2-0.1c-0.9,0-1.8-0.1-2.7-0.1c-0.9,0-1.8,0-2.7,0.1
		c-0.9,0-1.5,0.1-2,0.1V33c0.7,0,1.2-0.2,1.5-0.5c0.3-0.4,0.4-1,0.4-2V19.3c0-0.6-0.1-1.1-0.2-1.6c-0.1-0.4-0.3-0.8-0.6-1
		c-0.3-0.2-0.8-0.4-1.4-0.4c-0.6,0-1.2,0.2-1.8,0.5c-0.5,0.4-1,0.8-1.3,1.5c-0.3,0.6-0.5,1.3-0.5,2.1v9.9c0,1,0.1,1.7,0.4,2
		c0.3,0.4,0.8,0.5,1.5,0.5v0.7c-0.4,0-1.1-0.1-1.9-0.1c-0.8,0-1.7-0.1-2.5-0.1c-0.9,0-1.8,0-2.8,0.1c-1,0-1.7,0.1-2.1,0.1V33
		c0.8,0,1.4-0.2,1.8-0.5c0.3-0.4,0.5-1,0.5-2V19.2c0-1.1-0.2-1.9-0.5-2.4c-0.3-0.5-0.9-0.8-1.8-0.8v-0.7c0.8,0.1,1.5,0.1,2.2,0.1
		c1,0,1.9,0,2.8-0.1c0.9-0.1,1.7-0.2,2.4-0.4v3.2c0.6-1.2,1.4-2.1,2.4-2.6C107.9,15.1,109,14.8,110.3,14.8z"/>
</g>
<g class="st0">
	<path class="st2" d="M136.5,8c1.4,0,2.5,0.1,3.2,0.4c0.8,0.3,1.4,0.6,2,0.9c0.3,0.2,0.5,0.3,0.7,0.4c0.2,0.1,0.4,0.1,0.5,0.1
		c0.2,0,0.4-0.1,0.5-0.4c0.1-0.3,0.2-0.7,0.3-1.2h0.8c0,0.5-0.1,1-0.1,1.6c0,0.6-0.1,1.5-0.1,2.5c0,1,0,2.4,0,4h-0.8
		c-0.1-1.2-0.4-2.4-0.9-3.6c-0.5-1.2-1.1-2.1-2-2.9c-0.9-0.7-1.9-1.1-3.2-1.1c-1.1,0-2.1,0.3-2.8,1c-0.7,0.6-1.1,1.5-1.1,2.7
		c0,1,0.2,1.8,0.7,2.4c0.5,0.7,1.2,1.3,2.1,2s2,1.4,3.3,2.3c1.1,0.7,2.2,1.5,3.1,2.2c0.9,0.7,1.6,1.6,2.2,2.5c0.5,0.9,0.8,2,0.8,3.3
		c0,1.6-0.4,2.9-1.2,3.9c-0.8,1-1.9,1.8-3.2,2.3c-1.3,0.5-2.8,0.8-4.4,0.8c-1.5,0-2.7-0.1-3.5-0.4s-1.6-0.6-2.2-0.9
		c-0.5-0.3-0.9-0.5-1.2-0.5c-0.2,0-0.4,0.1-0.5,0.4c-0.1,0.3-0.2,0.7-0.3,1.2h-0.8c0-0.6,0.1-1.2,0.1-2c0-0.8,0-1.8,0-3s0-2.8,0-4.7
		h0.8c0.1,1.6,0.4,3,0.8,4.4c0.4,1.4,1.1,2.5,2,3.3c0.9,0.8,2.1,1.2,3.7,1.2c0.8,0,1.6-0.1,2.2-0.4c0.7-0.3,1.2-0.7,1.6-1.3
		c0.4-0.6,0.6-1.3,0.6-2.2c0-1-0.2-1.9-0.7-2.6c-0.5-0.7-1.1-1.4-1.9-2.1c-0.8-0.6-1.7-1.3-2.8-2c-1.1-0.7-2.2-1.5-3.1-2.2
		c-1-0.7-1.8-1.6-2.3-2.5c-0.6-1-0.9-2.1-0.9-3.4c0-1.5,0.4-2.7,1.1-3.7c0.7-1,1.7-1.7,3-2.1S135.1,8,136.5,8z"/>
	<path class="st2" d="M153,34c-1.1,0-2-0.2-2.7-0.6c-0.7-0.4-1.2-0.9-1.6-1.6c-0.3-0.7-0.5-1.4-0.5-2.2c0-1,0.2-1.9,0.7-2.5
		c0.5-0.6,1.1-1.2,1.8-1.6c0.7-0.4,1.5-0.7,2.3-1s1.6-0.5,2.4-0.8c0.7-0.2,1.4-0.5,1.8-0.9c0.5-0.3,0.7-0.8,0.7-1.3v-2.8
		c0-0.6-0.1-1.2-0.3-1.7c-0.2-0.5-0.5-0.9-0.9-1.1c-0.4-0.3-1-0.4-1.6-0.4c-0.5,0-1,0.1-1.4,0.2c-0.5,0.1-0.9,0.4-1.2,0.7
		c0.7,0.2,1.2,0.6,1.6,1.1c0.4,0.5,0.6,1,0.6,1.7c0,0.8-0.3,1.5-0.8,1.9c-0.6,0.5-1.2,0.7-2,0.7c-0.9,0-1.5-0.3-1.9-0.8
		c-0.4-0.5-0.7-1.2-0.7-1.9c0-0.7,0.2-1.3,0.5-1.7c0.3-0.5,0.8-0.9,1.4-1.3c0.7-0.4,1.5-0.7,2.4-0.9c0.9-0.2,2-0.3,3-0.3
		c1.1,0,2.1,0.1,3,0.3c0.9,0.2,1.6,0.6,2.2,1.2c0.5,0.5,0.9,1.2,1.1,2c0.2,0.8,0.2,1.8,0.2,3v9.7c0,0.6,0.1,1,0.2,1.2
		s0.3,0.3,0.6,0.3c0.2,0,0.4-0.1,0.6-0.2s0.4-0.3,0.7-0.4l0.4,0.6c-0.5,0.4-1.1,0.8-1.7,1c-0.7,0.2-1.4,0.3-2.2,0.3
		c-0.9,0-1.6-0.1-2.1-0.4c-0.5-0.2-0.9-0.6-1.1-1c-0.2-0.4-0.3-0.9-0.3-1.5c-0.6,0.9-1.3,1.6-2.1,2.1C155.1,33.7,154.2,34,153,34z
		 M155.5,31.7c0.5,0,0.9-0.1,1.3-0.3c0.4-0.2,0.8-0.6,1.1-1.1v-7.3c-0.2,0.4-0.5,0.7-0.9,1c-0.4,0.3-0.8,0.6-1.2,0.9
		c-0.4,0.3-0.8,0.6-1.2,1c-0.4,0.4-0.7,0.8-0.9,1.3c-0.2,0.5-0.4,1.2-0.4,1.9c0,0.9,0.2,1.6,0.6,2.1
		C154.3,31.5,154.9,31.7,155.5,31.7z M160.4,4.6c0.4,0.3,0.6,0.7,0.6,1.3c0,0.5-0.2,1.1-0.5,1.5c-0.4,0.5-0.8,0.9-1.4,1.3
		c-0.5,0.4-1.2,0.8-1.9,1.4s-1.6,1.3-2.7,2.3l-0.4-0.3c0.7-1.3,1.2-2.4,1.6-3.2s0.6-1.6,0.9-2.2c0.2-0.6,0.6-1.2,1-1.6
		c0.4-0.5,0.8-0.8,1.4-0.8C159.4,4.1,159.9,4.2,160.4,4.6z"/>
</g>
<g class="st0">
	<path class="st2" d="M175.7,14.8c2.1,0,3.7,0.6,4.9,1.9s1.8,3.3,1.8,6.1h-11.7l-0.1-0.7h7.3c0-1.2,0-2.2-0.2-3.2
		c-0.2-1-0.4-1.8-0.8-2.4c-0.4-0.6-0.8-0.9-1.4-0.9c-0.8,0-1.5,0.5-2.1,1.6c-0.6,1-0.9,2.8-1.1,5.2l0.1,0.2c0,0.3,0,0.6-0.1,0.9
		c0,0.3,0,0.6,0,1c0,1.6,0.2,3,0.7,4c0.5,1,1.1,1.8,1.8,2.2c0.7,0.5,1.4,0.7,2.2,0.7c0.5,0,1-0.1,1.6-0.2s1.1-0.4,1.6-0.9
		c0.5-0.4,1.1-1,1.5-1.8l0.6,0.2c-0.3,0.9-0.7,1.8-1.4,2.6c-0.6,0.9-1.4,1.6-2.4,2.1c-1,0.5-2.1,0.8-3.4,0.8c-1.6,0-3-0.3-4.3-1
		s-2.2-1.7-2.9-3.1c-0.7-1.4-1.1-3.2-1.1-5.3c0-2.2,0.4-4.1,1.1-5.5c0.7-1.5,1.8-2.6,3.1-3.3C172.6,15.2,174.1,14.8,175.7,14.8z"/>
</g>
<g class="st0">
	<path class="st2" d="M197.6,14.8c1,0,1.8,0.1,2.4,0.4c0.6,0.2,1.1,0.6,1.5,1c0.4,0.5,0.7,1,0.8,1.7c0.2,0.7,0.3,1.7,0.3,2.9v9.6
		c0,1,0.2,1.7,0.5,2c0.3,0.4,0.9,0.5,1.8,0.5v0.7c-0.5,0-1.1-0.1-2-0.1c-0.9,0-1.8-0.1-2.7-0.1c-0.9,0-1.8,0-2.7,0.1
		c-0.9,0-1.5,0.1-2,0.1V33c0.7,0,1.2-0.2,1.5-0.5c0.3-0.4,0.4-1,0.4-2V19.3c0-0.6-0.1-1.1-0.2-1.6c-0.1-0.4-0.3-0.8-0.6-1
		c-0.3-0.2-0.8-0.4-1.4-0.4c-0.6,0-1.2,0.2-1.8,0.5c-0.5,0.4-1,0.8-1.3,1.5c-0.3,0.6-0.5,1.3-0.5,2.1v9.9c0,1,0.1,1.7,0.4,2
		c0.3,0.4,0.8,0.5,1.5,0.5v0.7c-0.4,0-1.1-0.1-1.9-0.1c-0.8,0-1.7-0.1-2.5-0.1c-0.9,0-1.8,0-2.8,0.1c-1,0-1.7,0.1-2.1,0.1V33
		c0.8,0,1.4-0.2,1.8-0.5c0.3-0.4,0.5-1,0.5-2V19.2c0-1.1-0.2-1.9-0.5-2.4c-0.3-0.5-0.9-0.8-1.8-0.8v-0.7c0.8,0.1,1.5,0.1,2.2,0.1
		c1,0,1.9,0,2.8-0.1c0.9-0.1,1.7-0.2,2.4-0.4v3.2c0.6-1.2,1.4-2.1,2.4-2.6C195.2,15.1,196.3,14.8,197.6,14.8z"/>
	<path class="st2" d="M221.2,15.1l-8.9,18.1h1.9c0.9,0,1.8-0.2,2.6-0.6c0.8-0.4,1.5-1.1,2.1-2c0.6-0.9,0.9-2.2,1-3.8h0.7
		c0,1.7,0,3.2,0,4.3c0,1.1,0.1,2,0.1,2.8c-1.1,0-2.2-0.1-3.4-0.1c-1.2,0-2.3,0-3.5,0c-1.2,0-2.5,0-3.7,0.1c-1.3,0-2.5,0.1-3.7,0.1
		l8.9-18.1h-2c-1,0-1.8,0.2-2.6,0.6c-0.8,0.4-1.5,1.1-2,2c-0.5,0.9-0.8,2.2-1,3.8h-0.7c0-1.8,0-3.2,0-4.3c0-1.1-0.1-2-0.1-2.8
		c1.1,0,2.2,0.1,3.4,0.1c1.2,0,2.3,0,3.5,0c1.2,0,2.5,0,3.8-0.1C218.8,15.2,220,15.2,221.2,15.1z"/>
	<path class="st2" d="M227.1,28.7c0.9,0,1.7,0.2,2.2,0.7c0.5,0.5,0.8,1.2,0.8,2c0,0.9-0.3,1.5-0.8,2c-0.5,0.5-1.3,0.7-2.2,0.7
		c-0.9,0-1.7-0.2-2.2-0.7c-0.5-0.5-0.8-1.2-0.8-2c0-0.9,0.3-1.5,0.8-2C225.4,29,226.1,28.7,227.1,28.7z"/>
</g>
</svg>
