<?xml version="1.0" encoding="UTF-8"?>
<svg id="Layer_1" data-name="Layer 1" xmlns="http://www.w3.org/2000/svg" viewBox="0 0 228.71 29.47">
  <defs>
    <style>
      .cls-1 {
        fill: #e2e2e2;
        stroke-width: 0px;
      }
    </style>
  </defs>
  <path class="cls-1" d="M87.23,12.38c.2-.25.4-.51.59-.76,1.8-2.3,5.84-2.16,7.42-.75,1.08.96,1.54,2.22,1.76,3.59.09.58.13,1.16.13,1.74,0,2.72,0,5.45-.01,8.17,0,.5.16.65.64.63,1.04-.03,2.08-.02,3.11,0,.38,0,.55-.1.55-.52-.01-3.92-.01-7.85,0-11.77,0-.39-.13-.52-.51-.5-.44.02-.88,0-1.31,0-.29,0-.41-.12-.4-.4,0-.37.01-.75,0-1.12-.01-.3.13-.4.41-.4.45,0,.91-.01,1.36,0,.34,0,.45-.13.45-.46.01-.87-.06-1.75.06-2.62.33-2.46,1.71-3.96,4.17-4.41,2.1-.38,4.2-.18,6.27.33.08.02.2.04.22.09.22.63.43.15.63,0,.79-.64,1.69-.77,2.61-.4,1.04.42,1.57,1.28,1.69,2.37.1.88-.06,1.72-.65,2.42-1.22,1.45-3.29,1.31-4.26-.32-.24-.41-.5-.55-.93-.49-.45.06-.62-.12-.68-.57-.1-.67-.38-1.28-1.04-1.61-1.19-.6-2.44-.06-2.82,1.22-.35,1.14-.27,2.31-.27,3.48,0,1.1-.12,1,.98,1,3.02,0,6.03,0,9.05,0,.7,0,.7,0,.7.69,0,4.43,0,8.85,0,13.28,0,.73,0,.73.72.73.1,0,.2-.01.29,0,.36.05.88-.19,1.04.15.22.47.12,1.05.04,1.58-.04.29-.34.18-.53.18-2.46,0-4.93,0-7.39,0-.28,0-.55-.01-.83,0-.3.02-.42-.1-.44-.42-.07-1.49-.08-1.49,1.4-1.5.7,0,.7,0,.7-.7,0-3.81,0-7.62,0-11.43,0-.65,0-.65-.64-.65-1.52,0-3.05,0-4.57,0-.4,0-.54.12-.54.53.01,3.91.01,7.82,0,11.72,0,.44.17.56.58.55.62-.02,1.23,0,1.85,0,.32,0,.48.1.46.45-.02.37-.01.75,0,1.12,0,.25-.1.36-.35.35-.11,0-.23,0-.34,0-5.85,0-11.71,0-17.56,0q-.71,0-.71-.72,0-1.18,1.16-1.19c.65,0,.66,0,.66-.65,0-2.85,0-5.71,0-8.56,0-.5-.06-1-.14-1.5-.14-.84-.48-1.56-1.42-1.77-1.03-.23-2.07.15-2.62.96-.49.72-.66,1.55-.74,2.39-.19,1.99-.06,3.99-.09,5.98-.01.7,0,1.39,0,2.09.01,1.15-.15,1.04,1.03,1.05.13,0,.26,0,.39,0,.28-.01.42.1.41.4-.01.37-.01.75,0,1.12,0,.29-.12.4-.41.4-2.71,0-5.42,0-8.12,0-.29,0-.41-.11-.4-.4.01-.37.02-.75,0-1.12-.01-.31.15-.39.41-.39.41,0,.81-.02,1.22,0,.38.02.52-.13.51-.51-.02-1.07,0-2.14,0-3.21,0-2.82,0-5.64,0-8.46,0-.46-.13-.65-.6-.61-.37.03-.75,0-1.12,0-.32.01-.41-.13-.42-.43-.06-1.49-.07-1.49,1.41-1.49,1.72,0,3.44.01,5.16,0,.42,0,.58.13.55.56-.03.5,0,.99,0,1.49.04.01.08.02.12.03Z"/>
  <path class="cls-1" d="M208.78,25c-.32.34-.61.71-.97,1.01-1.73,1.45-3.71,1.71-5.8,1.03-1.42-.46-2.19-1.57-2.55-2.97-.29-1.13-.32-2.28-.09-3.42.33-1.67,1.31-2.82,2.88-3.47,1.3-.54,2.67-.64,4.05-.67.71-.02,1.43-.02,2.14,0,.35,0,.51-.1.49-.47-.02-.81-.04-1.62-.29-2.4-.31-.95-.93-1.58-1.9-1.84-.86-.24-1.73-.24-2.6-.01-1.11.29-1.7,1.1-1.99,2.14-.13.48-.34.64-.84.62-1.1-.05-.93.08-.95-.93,0-.76,0-1.52,0-2.29,0-.29.1-.44.37-.53,2.85-1,5.76-1.26,8.71-.54,2.88.71,4.38,2.71,4.42,5.84.04,2.74.01,5.48.01,8.22,0,.7,0,.7.7.7.96,0,1.91,0,2.87,0,.7,0,.71,0,.71-.69,0-5.32,0-10.64,0-15.95,0-1.1-.01-2.21,0-3.31,0-.4-.12-.56-.53-.53-.4.03-.81,0-1.22,0-.26,0-.39-.1-.38-.37,0-.37.01-.75,0-1.12,0-.3.13-.4.41-.4,2.09,0,4.18,0,6.28,0,.31,0,.45.12.43.43-.01.18,0,.36,0,.53,0,6.87,0,13.75,0,20.62q0,.78.76.78c1.4,0,1.38,0,1.38,1.42,0,.39-.13.5-.5.5-5.12,0-10.25,0-15.37,0-.39,0-.52-.14-.5-.51.02-.45,0-.9,0-1.35-.05-.02-.1-.05-.15-.07ZM208.93,20.33c0-.5-.01-1.01,0-1.51,0-.33-.1-.47-.45-.46-.65.02-1.3-.02-1.94.06-1.01.13-1.74.64-2.08,1.6-.42,1.17-.39,2.36.04,3.52.29.78.89,1.17,1.72,1.2,1.41.06,2.47-.92,2.65-2.43.08-.66.06-1.33.06-1.99Z"/>
  <path class="cls-1" d="M130.71,25.14c-.14-.02-.17.04-.2.09-1.05,1.75-2.69,2.23-4.59,2.12-2.7-.16-4.56-1.58-5.5-4.04-1.25-3.26-1.27-6.59.18-9.8,1.48-3.29,4.59-4.05,7.21-3.49,1.1.23,1.95.85,2.58,1.77.06.09.13.18.2.27,0,0,.03,0,.06.02.13-.13.07-.3.07-.45,0-2.16,0-4.31,0-6.47,0-.63,0-.63-.65-.63-.36,0-.71-.01-1.07,0-.32.01-.41-.13-.42-.43-.05-1.45-.06-1.45,1.4-1.45,1.69,0,3.37,0,5.06,0,.67,0,.67,0,.67.67,0,6.97,0,13.95,0,20.92q0,.78.76.78c1.42,0,1.41,0,1.39,1.42,0,.38-.13.51-.51.5-2.04-.01-4.09-.01-6.13,0-.38,0-.53-.12-.5-.51.02-.43,0-.86,0-1.28ZM125.14,18.59c0,.36-.01.71,0,1.07.05,1.23.1,2.46.52,3.64.38,1.07,1.16,1.61,2.24,1.61,1.07,0,1.87-.55,2.27-1.58.16-.41.28-.83.35-1.26.29-1.87.21-3.75.14-5.62-.03-.88-.16-1.74-.49-2.56-.5-1.24-1.61-1.8-2.91-1.49-.97.23-1.45.92-1.7,1.81-.4,1.43-.42,2.91-.42,4.38Z"/>
  <path class="cls-1" d="M13.05,26.92c-2.9,0-5.81,0-8.71,0-.97,0-.8.06-.82-.84,0-.18.02-.36,0-.53-.07-.45.16-.56.56-.54.52.02,1.04-.02,1.56,0,.43.02.56-.16.55-.57-.02-1.82,0-3.63,0-5.45,0-4.26,0-8.53,0-12.79,0-.69,0-.69-.7-.69-.52,0-1.04,0-1.56,0-.28,0-.39-.1-.41-.39-.07-1.5-.07-1.5,1.44-1.5,5.56,0,11.13,0,16.69,0q.72,0,.72.73c0,1.39-.02,2.79.01,4.18.01.51-.17.67-.65.62-.29-.03-.58-.02-.88,0-.33.01-.47-.13-.46-.46.01-.81,0-1.62,0-2.43,0-.36-.13-.48-.49-.48-2.59,0-5.19.01-7.78,0-.39,0-.5.16-.5.52,0,2.14,0,4.28,0,6.42,0,.37.13.52.51.51,1.49-.01,2.98-.01,4.48,0,.36,0,.49-.14.48-.49-.01-.68,0-1.36,0-2.04,0-.34.13-.44.46-.45,1.49-.03,1.49-.04,1.49,1.46,0,2.01,0,4.02,0,6.03,0,.45-.11.63-.6.62-1.35-.02-1.35,0-1.36-1.37,0-.41,0-.81,0-1.22,0-.26-.12-.38-.38-.38-1.56,0-3.11,0-4.67,0-.42,0-.41.28-.41.56,0,1.93,0,3.86,0,5.79,0,.83.01,1.65,0,2.48,0,.39.11.55.53.55,2.68-.01,5.35-.01,8.03,0,.35,0,.49-.1.48-.47-.02-.79,0-1.59-.01-2.38,0-.34.09-.49.46-.5,1.49-.05,1.49-.06,1.49,1.42,0,1.17-.02,2.34,0,3.5.01.47-.13.61-.6.61-2.98-.02-5.97,0-8.95,0Z"/>
  <path class="cls-1" d="M161.77,12.37c.45-.62.93-1.2,1.56-1.65,1.8-1.26,4.92-1.16,6.52.24.95.83,1.38,1.94,1.61,3.14.14.72.2,1.44.2,2.18,0,2.69,0,5.38,0,8.08,0,.64,0,.64.66.65.36,0,.71,0,1.07,0,.28,0,.43.08.41.39-.01.37-.01.75,0,1.12,0,.29-.1.41-.4.41-2.72,0-5.45,0-8.17,0-.3,0-.4-.13-.39-.41.02-.45-.13-1,.07-1.34.24-.4.83-.13,1.27-.16.35-.02.49-.15.48-.5-.03-3.16.07-6.32-.06-9.48,0-.24-.05-.48-.09-.72-.16-.86-.49-1.59-1.47-1.79-1.07-.22-2.09.18-2.63,1.05-.54.87-.72,1.85-.74,2.84-.04,2.71-.02,5.42-.04,8.12,0,.37.15.5.49.48.02,0,.03,0,.05,0,.4.05.96-.19,1.15.13.26.42.08,1.01.08,1.52,0,.29-.24.26-.43.26-.84,0-1.69,0-2.53,0-1.78,0-3.57-.01-5.35,0-.44,0-.59-.12-.58-.58.01-1.34,0-1.34,1.31-1.35q.79,0,.8-.8c0-3.78,0-7.56,0-11.33,0-.64,0-.64-.65-.64-.02,0-.03,0-.05,0-1.44,0-1.43,0-1.41-1.45,0-.37.15-.48.49-.47.83.01,1.65,0,2.48,0,1.2,0,2.4.01,3.6,0,.41,0,.59.11.56.55-.03.49,0,.99,0,1.49.04,0,.08.02.12.03Z"/>
  <path class="cls-1" d="M61.03,8.04c0,.81-.01,1.62,0,2.43,0,.36-.13.47-.48.48-1.26.02-1.25.03-1.59-1.16-.4-1.37-.96-2.65-2.11-3.59-2.6-2.11-6.71-1.21-8.17,1.8-.75,1.54-1.04,3.2-1.16,4.89-.18,2.51-.16,5.02.41,7.49.32,1.37.81,2.66,1.85,3.69,2.35,2.32,6.53,1.69,8.08-1.22.38-.7.66-1.44.84-2.22.07-.29.2-.4.5-.39.66.02,1.33.01,1.99,0,.31,0,.4.11.32.42-.99,3.89-3.31,6.37-7.6,6.66-2.24.15-4.41-.08-6.45-1.05-2.94-1.4-4.75-3.76-5.57-6.87-.75-2.88-.77-5.79.12-8.64,1.38-4.41,4.44-6.89,9.01-7.47,3.42-.44,6.63.41,9.73,1.78.24.1.29.26.29.5,0,.83,0,1.65,0,2.48Z"/>
  <path class="cls-1" d="M70.97,9.84c2.55.04,4.78.65,6.49,2.56.91,1.02,1.47,2.21,1.75,3.53.41,1.95.41,3.9-.13,5.82-.9,3.2-3.49,5.29-6.82,5.55-1.26.1-2.5.07-3.72-.22-2.67-.65-4.48-2.28-5.36-4.88-.75-2.21-.76-4.47-.16-6.71.89-3.29,3.5-5.36,6.92-5.6.37-.03.74-.04,1.02-.06ZM73.89,18.42c.03-.64-.02-1.47-.08-2.29-.07-1.02-.15-2.04-.55-3-.38-.92-1.06-1.44-2.08-1.47-1.05-.03-1.81.41-2.27,1.36-.26.53-.39,1.1-.47,1.68-.33,2.4-.31,4.81-.08,7.22.08.82.21,1.64.6,2.39.44.86,1.15,1.27,2.13,1.27.96,0,1.64-.43,2.07-1.27.26-.51.4-1.06.48-1.62.2-1.35.26-2.71.26-4.25Z"/>
  <path class="cls-1" d="M148.75,19.41c-1.52,0-3.05.01-4.57,0-.43,0-.56.13-.56.56.01,1.06.11,2.1.4,3.12.43,1.5,1.36,2.33,2.73,2.48,1.72.18,3.09-.49,3.82-1.85.24-.45.41-.92.5-1.42.05-.31.19-.44.51-.43.5.02,1.01.02,1.51,0,.34,0,.41.12.33.44-.66,2.61-2.22,4.31-4.92,4.84-1.51.3-3.03.34-4.54.03-3-.61-4.81-2.48-5.54-5.4-.5-1.99-.51-4.02-.06-6.02.85-3.72,3.61-5.86,7.58-5.89,3.11-.03,5.5,1.18,6.85,4.1.46.99.73,2.04.88,3.12.08.61.11,1.23.19,1.84.05.4-.11.51-.49.5-1.54-.01-3.08,0-4.62,0ZM145.98,17.54c.65,0,1.29,0,1.94,0,.19,0,.42.02.42-.27.01-1.52.03-3.05-.59-4.48-.31-.71-.87-1.1-1.67-1.12-1.03-.03-1.71.5-2.05,1.64-.37,1.25-.42,2.55-.41,3.84,0,.29.13.4.41.4.65,0,1.29,0,1.94,0Z"/>
  <path class="cls-1" d="M30.57,13.84c0,3.52,0,7.03-.01,10.55,0,.49.14.68.63.63.37-.03.75,0,1.12,0,.27,0,.39.11.37.38,0,.02,0,.03,0,.05q.07,1.49-1.4,1.49c-2.42,0-4.83,0-7.25,0-.43,0-.59-.11-.59-.57.01-1.35,0-1.35,1.36-1.35q.78,0,.78-.8c0-6.32,0-12.64,0-18.96q0-.72-.72-.72c-.34,0-.68-.01-1.02,0-.3.01-.4-.12-.4-.41.04-1.81-.28-1.45,1.36-1.48,1.73-.02,3.47,0,5.2-.01.42,0,.56.13.56.56-.01,3.55,0,7.1,0,10.65Z"/>
  <path class="cls-1" d="M188.56,13.43c0,.63,0,1.26,0,1.9,0,.35-.13.48-.49.48-1.03,0-1.02.02-1.25-.99-.04-.19-.09-.38-.14-.57-.64-2.2-2.19-2.92-4.31-2.49-1.17.24-1.86,1.05-2.24,2.15-.33.99-.47,2.02-.51,3.06-.09,1.86-.1,3.73.31,5.56.06.27.14.53.23.79.47,1.38,1.47,2.18,2.76,2.23,1.65.06,2.77-.62,3.36-2.05.19-.47.32-.95.38-1.45.03-.21.1-.33.33-.33.58,0,1.17,0,1.75,0,.31,0,.29.19.25.39-.62,2.75-2.17,4.72-5.17,5.14-1.37.19-2.72.14-4.05-.19-2.62-.64-4.39-2.26-5.21-4.82-.79-2.46-.8-4.96.04-7.41,1.06-3.07,3.34-4.64,6.52-4.94,2.44-.23,4.77.27,7.05,1.1.29.11.4.27.39.58-.01.62,0,1.23,0,1.85Z"/>
  <path class="cls-1" d="M196.84,17.65c0,2.25.01,4.5,0,6.76,0,.47.16.64.62.61.37-.03.74,0,1.12,0,.26,0,.36.11.37.38.1,1.53.1,1.53-1.41,1.53-2.4,0-4.8-.01-7.19.01-.51,0-.63-.16-.62-.64.02-1.29,0-1.29,1.28-1.29.11,0,.23,0,.34,0,.34.02.53-.1.49-.47,0-.06,0-.13,0-.19,0-3.82,0-7.65,0-11.47,0-.64,0-.64-.65-.65-.11,0-.23.01-.34,0-.36-.05-.88.19-1.04-.14-.22-.47-.09-1.05-.05-1.58.01-.18.2-.19.35-.19,2.12,0,4.25,0,6.37,0,.4,0,.38.27.38.53,0,2.27,0,4.54,0,6.81Z"/>
  <path class="cls-1" d="M191.36,5.75c0-1.93,1.27-3.21,2.96-3.1.58.04,1.06.27,1.47.66,1.09,1.02,1.29,2.86.45,4.1-.65.95-1.65,1.38-2.73,1.15-1.05-.22-1.92-1.17-2.11-2.29-.03-.21-.04-.42-.05-.5Z"/>
</svg>