<svg id="Componente_2_1" data-name="Componente 2 – 1" xmlns="http://www.w3.org/2000/svg" width="225.777" height="27.374" viewBox="0 0 225.777 27.374">
  <path id="Trazado_42" data-name="Trazado 42" d="M56.244,57.032l1.365,3.186h1.517v-8.5H57.609l-1.365,3.414H49.873V44.472h7.737l1.9,4.362h1.479V42.766H41.756v1.062l3.186,1.327V67.074L41.756,68.4v1.062H61.175l.455-6.03H60.075l-2.2,4.324h-8V57.032ZM62.98,68.4v1.062H73.533V68.4l-3.1-1.328V42.829H62.791v1.027l3.1,1.19V67.074L62.98,68.4ZM93.728,57.032l1.366,3.186h1.517v-8.5H95.093l-1.366,3.414H87.357V44.472h7.737l1.9,4.362h1.479V42.766H79.24v1.062l3.186,1.327V67.074L79.24,68.4v1.062H98.658l.455-6.03H97.559l-2.2,4.324h-8V57.032Zm17.181-6.267a10.361,10.361,0,0,0-7.548,2.769,9.7,9.7,0,0,0-2.844,7.282,8.926,8.926,0,0,0,2.427,6.486,8.333,8.333,0,0,0,6.258,2.5,16.709,16.709,0,0,0,3.129-.341,34.828,34.828,0,0,0,3.873-1.1l-.265-1.48-.417.114a14.783,14.783,0,0,1-2.944.379,6.943,6.943,0,0,1-5.31-1.972,7.815,7.815,0,0,1-1.858-5.575,8.426,8.426,0,0,1,1.63-5.348,5,5,0,0,1,4.1-2.086h.3l1.745,3.489h3.186V51.6a22.463,22.463,0,0,0-5.461-.834ZM119.29,67.49a9.485,9.485,0,0,0,6.9,2.542,9.617,9.617,0,0,0,7.168-2.769,9.771,9.771,0,0,0,2.731-7.168,9.027,9.027,0,0,0-2.617-6.789,9.487,9.487,0,0,0-6.9-2.542,9.625,9.625,0,0,0-7.169,2.769,9.873,9.873,0,0,0-2.73,7.244,8.93,8.93,0,0,0,2.617,6.712Zm3.679-13.047a3.81,3.81,0,0,1,6.789.228,12.239,12.239,0,0,1,1.251,6.03,10.522,10.522,0,0,1-1.195,5.48,3.871,3.871,0,0,1-6.826-.189,12.139,12.139,0,0,1-1.233-6.012,10.584,10.584,0,0,1,1.214-5.538Zm23.78-.872a3.7,3.7,0,0,1,3,.989,6.231,6.231,0,0,1,.8,3.726v8.781L148.394,68.4v1.064h9.324V68.4l-2.626-1.33V57.112a12.214,12.214,0,0,0-.246-2.85,6.231,6.231,0,0,0-1.289-2.224,4,4,0,0,0-3.28-1.274,7.227,7.227,0,0,0-2.162.309l-2.124.77-1.858.693-.379.154V50.566l-7.738,1.413V53.04l3.225.863V67.072L136.575,68.4v1.063h9.462V68.4l-2.284-1.331V53.875a17.373,17.373,0,0,1,3-.3ZM159.994,67.49a9.484,9.484,0,0,0,6.9,2.542,9.616,9.616,0,0,0,7.167-2.769A9.768,9.768,0,0,0,176.8,60.1a9.027,9.027,0,0,0-2.617-6.789,9.486,9.486,0,0,0-6.9-2.542,9.621,9.621,0,0,0-7.168,2.769,9.869,9.869,0,0,0-2.73,7.244,8.928,8.928,0,0,0,2.617,6.712Zm3.679-13.047a3.809,3.809,0,0,1,6.789.228,12.239,12.239,0,0,1,1.252,6.03,10.526,10.526,0,0,1-1.2,5.48,3.871,3.871,0,0,1-6.827-.189,12.149,12.149,0,0,1-1.233-6.012,10.576,10.576,0,0,1,1.214-5.538Zm23.333-.834q3.869,0,3.869,4.286v9.179L188.538,68.4v1.062h9.225V68.4l-2.337-1.327V56.909a7.151,7.151,0,0,0-.493-3,11.376,11.376,0,0,1,3.224-.493q3.868,0,3.869,4.437v9.216L199.65,68.4v1.062H209.2V68.4l-2.664-1.327V56.909a10.088,10.088,0,0,0-.265-2.655,5.031,5.031,0,0,0-.987-1.782,4.943,4.943,0,0,0-3.868-1.707q-2.01,0-6.675,1.972l-.38.152a5.884,5.884,0,0,0-1.744-1.669,4.591,4.591,0,0,0-2.2-.455,5.765,5.765,0,0,0-1.4.132q-.493.133-2.541.925l-1.783.716-.417.152V50.528l-7.737,1.413v.943l3.224,1.019V67.072L176.819,68.4v1.063h9.832V68.4l-2.375-1.327V53.913a10.431,10.431,0,0,1,2.731-.3ZM210.725,68.4v1.06h10.03V68.4l-2.664-1.327V50.537l-7.927,1.4V53l3.224.946v13.13L210.725,68.4Zm2.758-22.047a3.928,3.928,0,0,0,2.218.474q2.769,0,2.769-2.162,0-2.01-2.921-2.01-2.731,0-2.731,2.085a1.846,1.846,0,0,0,.664,1.612Zm9.691,22.658,1.714.342q1.372.274,2.19.37a11.336,11.336,0,0,0,1.576.08,7,7,0,0,0,4.743-1.7,5.482,5.482,0,0,0,2.01-4.173c-.046-2.1-1.385-3.718-3.459-4.862l-3.377-1.785a6.693,6.693,0,0,1-1.695-1.177,1.98,1.98,0,0,1-.446-1.318q-.051-2.313,3.286-2.386l.418.03,1.738,3.148,2.5-.054-.088-4.057-.417.009-1.563-.34-1.713-.254-2.28-.158a6.474,6.474,0,0,0-4.366,1.575,4.75,4.75,0,0,0-1.625,3.791,4.381,4.381,0,0,0,.815,2.6,8.316,8.316,0,0,0,2.587,2.068l3.189,1.827a7.6,7.6,0,0,1,1.905,1.286,2.247,2.247,0,0,1,.391,1.395q.058,2.616-3.469,2.693l-.834.018-1.861-3.563-2.541.055.1,4.437.571.1Zm15.208-3.761q0,4.552,4.475,4.552a16.613,16.613,0,0,0,4.02-.531l1.692-.493.418-.114-.342-1.479-.3.053-.744.212h-1.138a3.81,3.81,0,0,1-2.674-.7,3.672,3.672,0,0,1-.7-2.6v-11.3h5.561v-1.9h-5.561V45.692h-1.48c-.2.455-.385,1.382-.549,1.66s-.45.74-.854,1.384a4.746,4.746,0,0,1-1.27,1.422,15.093,15.093,0,0,1-2.977,1.252l-.417.152v1.289h2.844v12.4ZM256.306,52.32h.872a2.646,2.646,0,0,1,2.048.645A3.4,3.4,0,0,1,259.8,55.2V59.64a46.562,46.562,0,0,0-7.358,1.157q-3.034.779-3.034,4.3a4.487,4.487,0,0,0,1.4,3.413,4.979,4.979,0,0,0,3.565,1.327,7.209,7.209,0,0,0,2.446-.53,19.678,19.678,0,0,0,3.091-1.517q.606,2.047,2.314,2.048a5.764,5.764,0,0,0,1.593-.227l1.669-.455,1.669-.493.379-.114V67.49L265.523,67q-1.215-.342-1.213-.948v-10.7a5.771,5.771,0,0,0-.36-2.37,3.944,3.944,0,0,0-1.688-1.48,7.809,7.809,0,0,0-3.755-.74,29.1,29.1,0,0,0-7.585,1.48v3.641H254.3l1.745-3.565ZM259.8,66.77a8.608,8.608,0,0,1-2.5.418,3.329,3.329,0,0,1-2.332-.778,2.7,2.7,0,0,1-.853-2.1,2.428,2.428,0,0,1,.7-1.934,6.542,6.542,0,0,1,2.788-1.024l1.706-.379.493-.075V66.77Z" transform="translate(-41.756 -42.658)" fill="#fff"/>
</svg>
